<?xml version="1.0" standalone="no"?>
<!DOCTYPE svg PUBLIC "-//W3C//DTD SVG 1.1//EN" "http://www.w3.org/Graphics/SVG/1.1/DTD/svg11.dtd" >
<svg xmlns="http://www.w3.org/2000/svg" xmlns:xlink="http://www.w3.org/1999/xlink" version="1.1">
<metadata>
Created by FontForge 20150102 at Tue Jan  6 13:42:06 2015
 By uniteet7
Copyright (c) Village Type &#38; Design LLC. All rights reserved.
</metadata>
<defs>
<font id="ApexNewWebBook" horiz-adv-x="570" >
  <font-face 
    font-family="ApexNewWebBook"
    font-weight="600"
    font-stretch="normal"
    units-per-em="1000"
    panose-1="2 1 6 0 4 5 1 1 1 3"
    ascent="750"
    descent="-250"
    x-height="500"
    cap-height="750"
    bbox="-80 -260 1265 1000"
    underline-thickness="25"
    underline-position="-76"
    unicode-range="U+0020-E42D"
  />
<missing-glyph horiz-adv-x="880" 
d="M65 750h750v-750h-750v750zM440 422l262 262h-524zM178 66h524l-262 262zM744 118v514l-257 -257zM136 632v-514l257 257z" />
    <glyph glyph-name=".notdef" horiz-adv-x="880" 
d="M65 750h750v-750h-750v750zM440 422l262 262h-524zM178 66h524l-262 262zM744 118v514l-257 -257zM136 632v-514l257 257z" />
    <glyph glyph-name=".null" horiz-adv-x="0" 
 />
    <glyph glyph-name="nonmarkingreturn" horiz-adv-x="170" 
 />
    <glyph glyph-name="space" unicode=" " horiz-adv-x="170" 
 />
    <glyph glyph-name="exclam" unicode="!" horiz-adv-x="190" 
d="M75 210l-30 540h100l-30 -540h-40zM45 40q0 21 14.5 35.5t35.5 14.5t35.5 -14.5t14.5 -35.5t-14.5 -35.5t-35.5 -14.5t-35.5 14.5t-14.5 35.5z" />
    <glyph glyph-name="quotedbl" unicode="&#x22;" horiz-adv-x="330" 
d="M76 500l-31 250h100l-31 -250h-38zM216 500l-31 250h100l-31 -250h-38z" />
    <glyph glyph-name="numbersign" unicode="#" 
d="M115 250l55 250h-106l20 66h100l41 184h64l-41 -184h157l41 184h64l-41 -184h91l-20 -66h-85l-55 -250h106l-20 -66h-101l-40 -184h-64l40 184h-157l-40 -184h-64l40 184h-90l20 66h85zM179 250h157l55 250h-157z" />
    <glyph glyph-name="dollar" unicode="$" horiz-adv-x="600" 
d="M112 -125l36 129q-26 5 -48 11.5t-38 14.5v65q21 -8 45.5 -16.5t56.5 -15.5l84 305q-51 9 -86.5 22.5t-57.5 35t-32 52t-10 73.5q0 33 8.5 69.5t34 67.5t73 51.5t126.5 20.5q14 0 27 -0.5t25 -1.5l33 117h60l-35 -124q50 -10 85 -26v-67q-53 22 -102 31l-75 -273
q51 -8 91.5 -20t68.5 -34.5t42.5 -57.5t14.5 -88q0 -38 -10.5 -78t-39.5 -73t-81 -54t-136 -21q-16 0 -33 1.5t-34 3.5l-33 -120h-60zM471 216q0 39 -8.5 64t-28 40.5t-51 24t-77.5 14.5l-84 -304q12 -2 24.5 -2h26.5q58 0 96.5 13t61 35t31.5 51.5t9 63.5zM303 697
q-56 0 -90.5 -12t-53.5 -32t-26 -46.5t-7 -56.5q0 -35 9 -57.5t26 -36t43 -21t60 -12.5l75 273q-8 0 -17.5 0.5t-18.5 0.5z" />
    <glyph glyph-name="percent" unicode="%" horiz-adv-x="895" 
d="M221 370q-91 0 -131 49t-40 146t40 146t131 49t131 -49t40 -146t-40 -146t-131 -49zM674 380q91 0 131 -49t40 -146t-40 -146t-131 -49t-131 49t-40 146t40 146t131 49zM144 0l530 750h77l-530 -750h-77zM674 320q-57 0 -82 -30.5t-25 -104.5t25 -104.5t82 -30.5t82 30.5
t25 104.5t-25 104.5t-82 30.5zM221 430q57 0 82 30.5t25 104.5t-25 104.5t-82 30.5t-82 -30.5t-25 -104.5t25 -104.5t82 -30.5z" />
    <glyph glyph-name="ampersand" unicode="&#x26;" horiz-adv-x="705" 
d="M141 592q0 30 9 60t29.5 54t53.5 39t82 15t82 -15t53 -39t29 -54t9 -60q0 -40 -15.5 -69t-41.5 -51.5t-60 -40t-71 -34.5l-26 -12q25 -39 53 -73q41 -50 84.5 -89t90.5 -70q54 59 83.5 147.5t29.5 199.5h68q0 -123 -32.5 -220t-90.5 -164q36 -20 72.5 -37.5t73.5 -32.5
l-24 -56q-43 17 -85 37t-83 44q-49 -39 -107.5 -60t-127.5 -21q-47 0 -89.5 10.5t-74.5 35t-51 64.5t-19 98q0 48 11.5 82t30.5 59t44 42t53 31q-20 42 -31.5 86.5t-11.5 93.5zM278 269q-35 42 -63 87q-21 -11 -39.5 -24.5t-32 -31.5t-21 -43t-7.5 -59q0 -43 15 -70.5
t38.5 -44t52.5 -23t58 -6.5q98 0 173 55q-47 32 -90 70.5t-84 89.5zM210 592q0 -41 9 -78.5t26 -73.5l27 13q28 13 54.5 26t47.5 29t33.5 36.5t12.5 47.5q0 20 -5 39t-17 34t-32.5 24t-50.5 9t-50.5 -9t-32.5 -24t-17 -34t-5 -39z" />
    <glyph glyph-name="quotesingle" unicode="'" horiz-adv-x="190" 
d="M76 500l-31 250h100l-31 -250h-38z" />
    <glyph glyph-name="parenleft" unicode="(" horiz-adv-x="280" 
d="M175 -206q-19 28 -41 76t-40.5 113t-31 146t-12.5 176t12.5 176t31 146t40.5 113t41 76h75q-19 -28 -41 -76t-41 -113t-31.5 -146t-12.5 -176t12.5 -176t31.5 -146t41 -113t41 -76h-75z" />
    <glyph glyph-name="parenright" unicode=")" horiz-adv-x="280" 
d="M30 -206q19 28 41 76t41 113t31.5 146t12.5 176t-12.5 176t-31.5 146t-41 113t-41 76h75q19 -28 41 -76t40.5 -113t31 -146t12.5 -176t-12.5 -176t-31 -146t-40.5 -113t-41 -76h-75z" />
    <glyph glyph-name="asterisk" unicode="*" horiz-adv-x="355" 
d="M217 550l99 -105l-63 -43l-68 126zM171 528l-68 -128l-61 46l97 104zM159 609l-20 141h78l-20 -141h-38zM210 601l129 61l22 -74l-140 -24zM135 564l-141 24l24 73l128 -60z" />
    <glyph glyph-name="plus" unicode="+" horiz-adv-x="490" 
d="M212 141v167h-167v66h167v167h66v-167h167v-66h-167v-167h-66z" />
    <glyph glyph-name="comma" unicode="," horiz-adv-x="190" 
d="M140 66l-65 -191h-50l25 191h90z" />
    <glyph glyph-name="hyphen" unicode="-" horiz-adv-x="310" 
d="M280 272h-250v66h250v-66z" />
    <glyph glyph-name="period" unicode="." horiz-adv-x="190" 
d="M45 40q0 21 14.5 35.5t35.5 14.5t35.5 -14.5t14.5 -35.5t-14.5 -35.5t-35.5 -14.5t-35.5 14.5t-14.5 35.5z" />
    <glyph glyph-name="slash" unicode="/" horiz-adv-x="390" 
d="M-15 -206l347 1022h73l-347 -1022h-73z" />
    <glyph glyph-name="zero" unicode="0" horiz-adv-x="600" 
d="M530 375q0 -88 -5.5 -159t-28.5 -121.5t-69 -77.5t-127 -27q-80 0 -126 27t-69 77.5t-29 121.5t-6 159t6 159t29 121.5t69 77.5t126 27q81 0 127 -27t69 -77.5t28.5 -121.5t5.5 -159zM460 375q0 72 -3 131.5t-18.5 102t-48 66t-90.5 23.5q-59 0 -91.5 -23.5t-47.5 -66
t-18 -102t-3 -131.5t3 -131.5t18 -102t47.5 -66t91.5 -23.5q58 0 90.5 23.5t48 66t18.5 102t3 131.5z" />
    <glyph glyph-name="one" unicode="1" horiz-adv-x="600" 
d="M110 40l165 10v638l-170 -15v27l210 60h28v-710l165 -10v-40h-398v40z" />
    <glyph glyph-name="two" unicode="2" horiz-adv-x="600" 
d="M472 560q0 29 -6.5 54t-25 43t-51.5 28.5t-85 10.5q-26 0 -49 -2t-45.5 -6.5t-45.5 -12t-48 -18.5v68q31 14 76.5 24.5t110.5 10.5q79 0 126 -19.5t72.5 -49t33.5 -65t8 -66.5q0 -32 -7 -62.5t-23.5 -63t-45.5 -69.5t-73 -81.5t-105 -99t-142 -121.5l396 2v-65h-486v51
q100 84 169.5 147.5t115.5 111t72 83t39 64t16 53t3 50.5z" />
    <glyph glyph-name="three" unicode="3" horiz-adv-x="600" 
d="M258 54q63 0 103 13t63 34.5t31.5 50t8.5 59.5q0 79 -44 112t-137 33h-136v66h136q42 0 72 12t48.5 31.5t27 43.5t8.5 49q0 29 -8 54t-29 44t-58 29.5t-94 10.5q-26 0 -49 -2t-45.5 -6.5t-45.5 -12t-48 -18.5v68q31 14 76.5 24.5t110.5 10.5q76 0 127 -15.5t81.5 -43
t43 -64.5t12.5 -79q0 -27 -8.5 -52.5t-23.5 -47t-35.5 -38.5t-44.5 -26q32 -7 57.5 -24t43 -41.5t27 -54.5t9.5 -63q0 -45 -13.5 -85.5t-46 -70.5t-86.5 -47.5t-135 -17.5q-65 0 -114.5 10.5t-80.5 24.5v68q51 -22 97 -30.5t99 -8.5z" />
    <glyph glyph-name="four" unicode="4" horiz-adv-x="600" 
d="M443 281h107v-62h-107v-219h-68v219h-325v42l342 499h51v-479zM375 281l2 361l-248 -363z" />
    <glyph glyph-name="five" unicode="5" horiz-adv-x="600" 
d="M245 52q31 0 67 6t66 25.5t50 55t20 94.5q0 57 -17.5 87.5t-45.5 44.5t-63.5 16t-71.5 2h-140v367h395v-62h-327v-245q23 2 49 3.5t46 1.5q45 0 89.5 -6.5t79.5 -29t56.5 -65t21.5 -114.5q0 -81 -27 -129t-68 -73.5t-89.5 -33t-91.5 -7.5q-55 0 -97 9.5t-68 22.5v62
q28 -11 68 -21.5t98 -10.5z" />
    <glyph glyph-name="six" unicode="6" horiz-adv-x="600" 
d="M340 696q-59 0 -99.5 -24t-65.5 -66.5t-35.5 -102t-10.5 -129.5q9 17 24 34.5t37.5 31.5t51.5 23t67 9q77 0 122 -23.5t68 -59t29.5 -78t6.5 -80.5t-8 -80.5t-32 -78t-68.5 -59t-117.5 -23.5q-81 0 -129 25.5t-73.5 72t-33.5 112t-8 145.5q0 92 12 168.5t43 131t84 85
t136 30.5q73 0 114.5 -11.5t60.5 -22.5v-66q-28 14 -71.5 25t-103.5 11zM139 231q0 -30 6.5 -61.5t24.5 -58t51.5 -43t87.5 -16.5q51 0 81.5 18.5t47 45.5t22 58t5.5 57q0 25 -4 56.5t-20 58.5t-47 45.5t-85 18.5q-53 0 -86 -17t-52 -43.5t-25.5 -58t-6.5 -60.5z" />
    <glyph glyph-name="seven" unicode="7" horiz-adv-x="600" 
d="M115 0l365 688h-430v62h500v-48l-347 -702h-88z" />
    <glyph glyph-name="eight" unicode="8" horiz-adv-x="600" 
d="M300 -10q-70 0 -118.5 18t-78.5 48.5t-43 70.5t-13 84q0 28 7.5 57t22.5 54t38.5 44.5t55.5 28.5q-49 23 -74 65.5t-25 91.5q0 41 11.5 78.5t38.5 66.5t70.5 46t107.5 17t107.5 -17t70.5 -46t38.5 -66.5t11.5 -78.5q0 -49 -25 -91.5t-74 -65.5q32 -9 55.5 -28.5
t38.5 -44.5t22.5 -54t7.5 -57q0 -44 -13 -84t-43 -70.5t-78.5 -48.5t-118.5 -18zM300 358q-88 0 -133.5 -35.5t-45.5 -111.5q0 -27 8 -55t28.5 -51.5t55 -38t87.5 -14.5t87.5 14.5t55 38t28.5 51.5t8 55q0 76 -45.5 111.5t-133.5 35.5zM300 420q42 0 71.5 11.5t48 30.5
t26.5 42.5t8 47.5q0 25 -6 51t-23 47t-47 34.5t-78 13.5t-78 -13.5t-47 -34.5t-23 -47t-6 -51q0 -24 8 -47.5t26.5 -42.5t48 -30.5t71.5 -11.5z" />
    <glyph glyph-name="nine" unicode="9" horiz-adv-x="600" 
d="M260 54q59 0 99.5 24t65 66.5t35.5 101.5t11 130q-9 -17 -24 -34.5t-37.5 -31.5t-52 -23t-66.5 -9q-77 0 -122 23.5t-68 59t-29.5 78t-6.5 80.5t8 80.5t32 78t68.5 59t117.5 23.5q81 0 129 -25.5t73.5 -72t33.5 -112t8 -145.5q0 -92 -12 -168.5t-43 -131.5t-84.5 -85
t-135.5 -30q-73 0 -114.5 11.5t-60.5 22.5v66q28 -14 71.5 -25t103.5 -11zM461 519q0 30 -6.5 61.5t-24.5 58t-51.5 43t-87.5 16.5q-51 0 -82 -18.5t-47.5 -45.5t-21.5 -58.5t-5 -56.5q0 -26 4 -57t20 -58t47 -45.5t85 -18.5q53 0 86 17t52 43t25.5 58t6.5 61z" />
    <glyph glyph-name="colon" unicode=":" horiz-adv-x="190" 
d="M45 40q0 21 14.5 35.5t35.5 14.5t35.5 -14.5t14.5 -35.5t-14.5 -35.5t-35.5 -14.5t-35.5 14.5t-14.5 35.5zM45 375q0 21 14.5 35.5t35.5 14.5t35.5 -14.5t14.5 -35.5t-14.5 -35.5t-35.5 -14.5t-35.5 14.5t-14.5 35.5z" />
    <glyph glyph-name="semicolon" unicode=";" horiz-adv-x="190" 
d="M140 66l-65 -191h-50l25 191h90zM45 375q0 21 14.5 35.5t35.5 14.5t35.5 -14.5t14.5 -35.5t-14.5 -35.5t-35.5 -14.5t-35.5 14.5t-14.5 35.5z" />
    <glyph glyph-name="less" unicode="&#x3c;" horiz-adv-x="490" 
d="M445 75l-400 233v66l400 233v-73l-331 -193l331 -193v-73z" />
    <glyph glyph-name="equal" unicode="=" horiz-adv-x="490" 
d="M445 374h-400v66h400v-66zM445 242h-400v66h400v-66z" />
    <glyph glyph-name="greater" unicode="&#x3e;" horiz-adv-x="490" 
d="M45 607l400 -233v-66l-400 -233v73l331 193l-331 193v73z" />
    <glyph glyph-name="question" unicode="?" horiz-adv-x="470" 
d="M180 698q-54 0 -93 -7.5t-62 -15.5v60q12 5 31 9.5t40 8t43 5.5t40 2q79 0 127 -16.5t74.5 -44t35.5 -63.5t9 -74q0 -47 -13 -79t-37 -55t-58 -40t-76 -34q-27 -11 -42 -24.5t-22 -31t-8.5 -39t-1.5 -49.5h-37q-6 30 -8.5 58.5t6 54.5t31.5 48t68 39q25 9 48.5 19.5
t42 26.5t29.5 41t11 64q0 31 -7 56.5t-26.5 43.5t-54.5 27.5t-90 9.5zM118 40q0 21 14.5 35.5t35.5 14.5t35.5 -14.5t14.5 -35.5t-14.5 -35.5t-35.5 -14.5t-35.5 14.5t-14.5 35.5z" />
    <glyph glyph-name="at" unicode="@" horiz-adv-x="870" 
d="M40 250q0 100 26.5 173t77.5 120t125.5 69.5t170.5 22.5q193 0 291.5 -81.5t98.5 -245.5q0 -38 -7.5 -83t-31.5 -84t-68 -65t-116 -26h-39l-15 37q-35 -26 -69 -36.5t-67 -10.5q-38 0 -71.5 12.5t-58.5 38.5t-40 65.5t-15 93.5t15 93.5t40 65.5t58.5 38.5t71.5 12.5
q32 0 66.5 -10.5t69.5 -36.5l15 37h39v-343q89 -1 124 52t35 154q0 71 -19.5 121t-60 81.5t-101.5 46t-145 14.5t-146 -18t-103 -57.5t-61.5 -101.5t-20.5 -149t20.5 -149t61.5 -101.5t103 -57.5t146 -18q34 0 69 3t68.5 8t63.5 13t54 18l1 -62q-48 -17 -116.5 -28
t-139.5 -11q-96 0 -170.5 22.5t-125.5 69.5t-77.5 119.5t-26.5 173.5zM427 102q29 0 55 8t55 24v232q-29 16 -55 24t-55 8q-66 0 -95.5 -36.5t-29.5 -111.5t29.5 -111.5t95.5 -36.5z" />
    <glyph glyph-name="A" unicode="A" horiz-adv-x="630" 
d="M25 0l265 760h50l265 -760h-77l-69 210h-288l-69 -210h-77zM190 269h249l-124 377z" />
    <glyph glyph-name="B" unicode="B" horiz-adv-x="615" 
d="M75 750h237q66 0 110.5 -15.5t71.5 -42.5t39 -63t12 -77q0 -49 -24.5 -92t-73.5 -64q32 -9 55.5 -27.5t38.5 -43.5t22 -54.5t7 -59.5q0 -44 -13 -82.5t-42.5 -67t-77.5 -45t-118 -16.5h-244v750zM143 63h185q53 0 86 13t51 34t24.5 47.5t6.5 53.5q0 76 -37 112t-129 36
h-187v-296zM471 552q0 25 -5.5 49t-21.5 43t-45 31t-77 12h-179v-265h187q42 0 69.5 11.5t43.5 29.5t22 41.5t6 47.5z" />
    <glyph glyph-name="C" unicode="C" horiz-adv-x="610" 
d="M60 375q0 80 14.5 150t49 122.5t91 82.5t140.5 30q69 0 116.5 -10.5t78.5 -24.5v-67q-26 10 -49 17.5t-46 12.5t-47.5 7t-52.5 2q-62 0 -104.5 -25t-68.5 -68.5t-38 -102t-12 -126.5t12 -126.5t38 -102t68.5 -68.5t104.5 -25q28 0 52.5 2t47.5 7t46 12t49 18v-67
q-31 -14 -78.5 -24.5t-116.5 -10.5q-84 0 -140.5 30t-91 82.5t-49 122.5t-14.5 150z" />
    <glyph glyph-name="D" unicode="D" horiz-adv-x="655" 
d="M75 0v750h204q92 0 153 -28.5t97 -79t51 -119t15 -148.5t-15 -148.5t-51 -119t-97 -79t-153 -28.5h-204zM143 63h140q67 0 113 23.5t74.5 65t40.5 98.5t12 125q0 67 -12 124.5t-40.5 99t-74.5 65t-113 23.5h-140v-624z" />
    <glyph glyph-name="E" unicode="E" 
d="M475 359h-332v-296h367v-63h-435v750h435v-63h-367v-265h332v-63z" />
    <glyph glyph-name="F" unicode="F" horiz-adv-x="550" 
d="M465 359h-322v-359h-68v750h425v-63h-357v-265h322v-63z" />
    <glyph glyph-name="G" unicode="G" horiz-adv-x="660" 
d="M355 -10q-84 0 -140.5 30t-91 82.5t-49 122.5t-14.5 150t14.5 150t49 122.5t91 82.5t140.5 30q78 0 128.5 -13t81.5 -29v-68q-29 12 -54 21t-49.5 14.5t-50.5 8.5t-56 3q-62 0 -104.5 -25t-68.5 -68.5t-38 -102t-12 -126.5t12 -126.5t38 -102t68.5 -68.5t104.5 -25
q21 0 44 1t45 3.5t41 7t32 10.5v256h-157v63h225v-363q-38 -18 -94.5 -29.5t-135.5 -11.5z" />
    <glyph glyph-name="H" unicode="H" horiz-adv-x="660" 
d="M517 0v359h-374v-359h-68v750h68v-328h374v328h68v-750h-68z" />
    <glyph glyph-name="I" unicode="I" horiz-adv-x="260" 
d="M95 0v750h70v-750h-70z" />
    <glyph glyph-name="J" unicode="J" horiz-adv-x="379" 
d="M35 61q18 -5 32.5 -6.5t37.5 -1.5q49 0 79 18t30 67v612h70v-610q0 -72 -42.5 -111t-136.5 -39q-16 0 -35.5 1.5t-34.5 5.5v64z" />
    <glyph glyph-name="K" unicode="K" horiz-adv-x="595" 
d="M208 363l-65 -75v-288h-68v750h68v-374l313 374h88l-292 -336l322 -414h-89z" />
    <glyph glyph-name="L" unicode="L" horiz-adv-x="530" 
d="M143 63h347v-63h-415v750h68v-687z" />
    <glyph glyph-name="M" unicode="M" horiz-adv-x="840" 
d="M448 115h-56l-253 546l4 -661h-68v750h92l253 -552l253 552h92v-750h-68l4 661z" />
    <glyph glyph-name="N" unicode="N" horiz-adv-x="670" 
d="M544 0l-403 611l2 -611h-68v750h51l403 -611l-2 611h68v-750h-51z" />
    <glyph glyph-name="O" unicode="O" horiz-adv-x="680" 
d="M340 53q68 0 109 25t63 68.5t29 102t7 126.5q0 67 -7 126t-29 102.5t-63 68.5t-109 25t-109 -25t-63 -68.5t-29 -102.5t-7 -126q0 -68 7 -126.5t29 -102t63 -68.5t109 -25zM340 -10q-92 0 -147 32.5t-84.5 86.5t-39 123t-9.5 143q0 73 9.5 142.5t39 123.5t84.5 86.5
t147 32.5t147 -32.5t84.5 -86.5t39 -123.5t9.5 -142.5q0 -74 -9.5 -143t-39 -123t-84.5 -86.5t-147 -32.5z" />
    <glyph glyph-name="P" unicode="P" horiz-adv-x="590" 
d="M143 0h-68v750h229q70 0 118 -18.5t77.5 -50t42.5 -72t13 -84.5t-13 -84.5t-42.5 -72t-77.5 -50t-118 -18.5h-161v-300zM143 363h170q53 0 86 15t51 39t24.5 52.5t6.5 55.5t-6.5 55.5t-24.5 52.5t-51 39t-86 15h-170v-324z" />
    <glyph glyph-name="Q" unicode="Q" horiz-adv-x="680" 
d="M423 6l287 -58v-72l-462 124q-62 16 -99 52.5t-56.5 86.5t-26 110.5t-6.5 125.5q0 80 10 150.5t40 122.5t85 82t145 30q91 0 146 -30t85 -82t39.5 -122.5t9.5 -150.5q0 -70 -6 -131.5t-26.5 -109.5t-59.5 -81t-105 -46v-1zM340 53q68 0 109 25t63 68.5t29 102t7 126.5
q0 67 -7 126t-29 102.5t-63 68.5t-109 25t-109 -25t-63 -68.5t-29 -102.5t-7 -126q0 -68 7 -126.5t29 -102t63 -68.5t109 -25z" />
    <glyph glyph-name="R" unicode="R" horiz-adv-x="621" 
d="M143 0h-68v750h235q70 0 117 -15t75.5 -42.5t40.5 -66.5t12 -87q0 -75 -30.5 -127t-107.5 -72l179 -340h-79l-168 329q-8 -1 -16.5 -1h-16.5h-173v-328zM143 391h185q50 0 80 12t46.5 32t21.5 47t5 57t-5 57t-21.5 47t-46.5 32t-80 12h-185v-296z" />
    <glyph glyph-name="S" unicode="S" horiz-adv-x="595" 
d="M305 697q-56 0 -91 -12t-55.5 -32t-28 -46.5t-7.5 -56.5q0 -40 11.5 -63.5t34 -37t56.5 -19.5t78 -12q55 -7 99 -19t75 -34t47.5 -58t16.5 -91q0 -38 -12 -78t-43 -73t-84.5 -54t-137.5 -21q-26 0 -55.5 3.5t-58 9t-53.5 12.5t-43 15v65q18 -6 38.5 -13.5t46 -13.5
t56.5 -10.5t70 -4.5q58 0 97.5 13t62.5 35t33 51.5t10 63.5q0 40 -9 65.5t-29 41t-52 23.5t-79 14q-66 8 -113 21t-76 34.5t-42.5 54.5t-13.5 81q0 33 10 69.5t37.5 67.5t76.5 51.5t128 20.5q69 0 116.5 -10.5t78.5 -24.5v-67q-51 22 -96 30.5t-100 8.5z" />
    <glyph glyph-name="T" unicode="T" horiz-adv-x="560" 
d="M314 687v-687h-68v687h-207v63h482v-63h-207z" />
    <glyph glyph-name="U" unicode="U" horiz-adv-x="670" 
d="M335 53q25 0 59 5t64.5 24t52 57.5t21.5 106.5v504h68v-515q0 -53 -13.5 -92t-35.5 -66t-50 -44t-57.5 -26.5t-58 -13t-50.5 -3.5q-34 0 -79.5 8.5t-87 34.5t-70 74t-28.5 128v515h68v-504q0 -68 21.5 -106.5t52 -57.5t64.5 -24t59 -5z" />
    <glyph glyph-name="V" unicode="V" horiz-adv-x="640" 
d="M610 750l-265 -760h-50l-265 760h77l213 -646l213 646h77z" />
    <glyph glyph-name="W" unicode="W" horiz-adv-x="880" 
d="M478 750l169 -654l131 654h72l-164 -760h-73l-173 670l-173 -670h-73l-164 760h72l131 -654l169 654h76z" />
    <glyph glyph-name="X" unicode="X" horiz-adv-x="630" 
d="M500 750h85l-240 -370l245 -380h-88l-202 334l-202 -334h-88l245 380l-240 370h85l200 -326z" />
    <glyph glyph-name="Y" unicode="Y" horiz-adv-x="670" 
d="M369 310v-310h-68v310l-271 440h75l230 -385l230 385h75z" />
    <glyph glyph-name="Z" unicode="Z" horiz-adv-x="610" 
d="M40 0v46l427 643l-407 -2v63h495v-46l-427 -643l442 2v-63h-530z" />
    <glyph glyph-name="bracketleft" unicode="[" horiz-adv-x="230" 
d="M136 -140h64v-66h-135v1022h135v-66h-64v-890z" />
    <glyph glyph-name="backslash" unicode="\" horiz-adv-x="390" 
d="M332 -206l-347 1022h73l347 -1022h-73z" />
    <glyph glyph-name="bracketright" unicode="]" horiz-adv-x="230" 
d="M94 750h-64v66h135v-1022h-135v66h64v890z" />
    <glyph glyph-name="asciicircum" unicode="^" horiz-adv-x="560" 
d="M14 375l233 385h66l233 -385h-73l-193 311l-193 -311h-73z" />
    <glyph glyph-name="underscore" unicode="_" horiz-adv-x="280" 
d="M0 -95h280v-60h-280v60z" />
    <glyph glyph-name="grave" unicode="`" 
d="M260 550l-80 200h80l50 -200h-50z" />
    <glyph glyph-name="a" unicode="a" horiz-adv-x="495" 
d="M360 343q0 27 -5.5 47t-19 33t-36.5 19t-58 6q-51 0 -86 -7.5t-64 -17.5v60q33 14 73.5 20.5t76.5 6.5q56 0 92.5 -12t58 -34.5t30 -53.5t8.5 -68v-342h-39l-15 40q-34 -25 -73.5 -37.5t-77.5 -12.5q-49 0 -82.5 13.5t-54 35.5t-29.5 51t-9 61t9.5 59t30.5 47.5t55 33.5
t83 16l132 8v28zM223 253q-54 -5 -78 -31.5t-24 -70.5q0 -17 3 -34.5t14 -32t32 -23.5t57 -9q41 0 71 10.5t62 29.5v174z" />
    <glyph glyph-name="b" unicode="b" horiz-adv-x="535" 
d="M275 510q60 0 100 -20.5t63 -55.5t32.5 -82.5t9.5 -101.5t-9.5 -101.5t-32.5 -82.5t-63 -55.5t-100 -20.5q-41 0 -79 13t-77 38l-15 -41h-39v750h70v-281q32 21 68.5 31t71.5 10zM275 448q-49 0 -80 -8t-60 -24v-332q29 -16 60 -24t80 -8q45 0 71.5 17t41 45t18.5 63.5
t4 72.5t-4 72.5t-18.5 63.5t-41 45t-71.5 17z" />
    <glyph glyph-name="c" unicode="c" horiz-adv-x="460" 
d="M55 250q0 54 9 101.5t33 82.5t65 55.5t104 20.5q37 0 76.5 -5.5t72.5 -19.5v-60q-29 10 -63 16.5t-87 6.5q-47 0 -75 -17t-42.5 -45t-18.5 -63.5t-4 -72.5t4 -72.5t18.5 -63.5t42.5 -45t75 -17q53 0 87 6.5t63 16.5v-60q-33 -14 -72.5 -19.5t-76.5 -5.5q-63 0 -104 20.5
t-65 55.5t-33 82.5t-9 101.5z" />
    <glyph glyph-name="d" unicode="d" horiz-adv-x="535" 
d="M260 510q35 0 71.5 -10t68.5 -31v281h70v-750h-39l-15 41q-39 -25 -77 -38t-79 -13q-60 0 -100 20.5t-63 55.5t-32.5 82.5t-9.5 101.5t9.5 101.5t32.5 82.5t63 55.5t100 20.5zM260 448q-45 0 -71.5 -17t-41 -45t-18.5 -63.5t-4 -72.5t4 -72.5t18.5 -63.5t41 -45t71.5 -17
q49 0 80 8t60 24v332q-29 16 -60 24t-80 8z" />
    <glyph glyph-name="e" unicode="e" horiz-adv-x="510" 
d="M55 250q0 54 9 101.5t32.5 82.5t64.5 55.5t104 20.5q64 0 101.5 -20.5t57 -55.5t25.5 -82.5t6 -101.5v-32h-330q1 -33 7.5 -63t21.5 -53t42 -36.5t69 -13.5q54 0 91 6t74 22v-60q-42 -19 -85 -24.5t-80 -5.5q-63 0 -104 20.5t-64.5 55.5t-32.5 82.5t-9 101.5zM265 448
q-44 0 -70.5 -14.5t-41.5 -38.5t-21 -55t-7 -65h260q0 33 -2.5 64.5t-14.5 55.5t-36 38.5t-67 14.5z" />
    <glyph glyph-name="f" unicode="f" horiz-adv-x="375" 
d="M370 690q-15 4 -31 6t-39 2q-49 0 -81 -19.5t-32 -68.5v-110h158v-55h-158v-445h-67v445h-100v31l100 29v105q0 72 43 111t137 39q16 0 35.5 -1.5t34.5 -5.5v-63z" />
    <glyph glyph-name="g" unicode="g" horiz-adv-x="510" 
d="M242 134q-38 0 -66 6q-8 -8 -13.5 -18t-5.5 -19q0 -35 38 -39l170 -20q71 -8 104 -38t33 -96q0 -46 -21 -78t-57 -52.5t-83 -30t-99 -9.5q-53 0 -94.5 8t-70 26t-44 47t-15.5 70q0 51 30.5 84.5t72.5 47.5v1q-14 10 -23 25.5t-9 40.5q0 21 11 38t27 30q-45 25 -62.5 68
t-17.5 96q0 39 9 73t31.5 59.5t60 40.5t94.5 15q23 0 43 -2.5t37 -7.5h170v-38l-84 -24q16 -24 22.5 -53.5t6.5 -62.5q0 -39 -9 -73t-31.5 -59.5t-60 -40.5t-94.5 -15zM205 5q-25 -6 -47 -14.5t-38.5 -22t-26.5 -31.5t-10 -42q0 -56 41 -75.5t118 -19.5q37 0 72 5t62 18
t43.5 34t16.5 53q0 38 -19.5 55.5t-65.5 22.5zM242 195q44 0 69.5 10.5t39 28t17.5 40.5t4 48t-4 48t-17.5 40.5t-39 28t-69.5 10.5t-69.5 -10.5t-39 -28t-17.5 -40.5t-4 -48t4 -48t17.5 -40.5t39 -28t69.5 -10.5z" />
    <glyph glyph-name="h" unicode="h" horiz-adv-x="500" 
d="M370 363q0 49 -26.5 67t-73.5 18q-49 0 -79 -8t-58 -24v-416h-68v750h68v-281q32 21 67 31t70 10q90 0 130 -39t40 -111v-360h-70v363v0z" />
    <glyph glyph-name="i" unicode="i" horiz-adv-x="240" 
d="M191 -10q-54 0 -82 25t-28 85v400h68v-408q0 -26 9.5 -35.5t32.5 -9.5v-57zM65 650q0 21 14.5 35.5t35.5 14.5t35.5 -14.5t14.5 -35.5t-14.5 -35.5t-35.5 -14.5t-35.5 14.5t-14.5 35.5z" />
    <glyph glyph-name="j" unicode="j" horiz-adv-x="230" 
d="M-47 -201q22 3 45 10.5t41.5 21t30 33.5t11.5 49v587h68v-596q0 -39 -18 -69t-46 -50.5t-63 -31.5t-69 -13v59zM65 650q0 21 14.5 35.5t35.5 14.5t35.5 -14.5t14.5 -35.5t-14.5 -35.5t-35.5 -14.5t-35.5 14.5t-14.5 35.5z" />
    <glyph glyph-name="k" unicode="k" horiz-adv-x="500" 
d="M238 294l242 -294h-87l-197 254l-63 -60v-194h-68v750h68v-474l226 224h94z" />
    <glyph glyph-name="l" unicode="l" horiz-adv-x="240" 
d="M191 -10q-54 0 -82 25t-28 85v650h68v-658q0 -26 9.5 -35.5t32.5 -9.5v-57v0z" />
    <glyph glyph-name="m" unicode="m" horiz-adv-x="785" 
d="M655 363q0 49 -26 67t-69 18q-23 0 -41.5 -2t-34.5 -6.5t-30.5 -10.5t-29.5 -14q6 -24 6 -52v-363h-70v363q0 49 -26 67t-69 18q-44 0 -72.5 -7.5t-57.5 -22.5v-418h-70v500h39l15 -41q36 26 73.5 38.5t72.5 12.5q101 0 140 -57q39 27 78 42t77 15q81 0 123 -37.5
t42 -112.5v-360h-70v363z" />
    <glyph glyph-name="n" unicode="n" horiz-adv-x="500" 
d="M370 363q0 49 -26.5 67t-73.5 18q-49 0 -78 -8t-57 -24v-416h-70v500h39l15 -42q70 52 151 52q90 0 130 -39t40 -111v-360h-70v363z" />
    <glyph glyph-name="o" unicode="o" horiz-adv-x="530" 
d="M475 250q0 -57 -8.5 -105t-32 -82.5t-64.5 -53.5t-105 -19t-105 19t-64 53.5t-32 82.5t-9 105t9 105t32 82.5t64 53.5t105 19t105 -19t64.5 -53.5t32 -82.5t8.5 -105zM405 250q0 42 -3.5 78.5t-17.5 63t-42 41.5t-77 15q-50 0 -78 -15t-41.5 -41.5t-17 -63t-3.5 -78.5
t3.5 -78.5t17 -63t41.5 -41.5t78 -15q49 0 77 15t42 41.5t17.5 63t3.5 78.5z" />
    <glyph glyph-name="p" unicode="p" horiz-adv-x="535" 
d="M275 -10q-35 0 -71.5 10t-68.5 31v-281h-70v750h39l15 -41q39 25 77 38t79 13q60 0 100 -20.5t63 -55.5t32.5 -82.5t9.5 -101.5t-9.5 -101.5t-32.5 -82.5t-63 -55.5t-100 -20.5zM275 52q45 0 71.5 17t41 45t18.5 63.5t4 72.5t-4 72.5t-18.5 63.5t-41 45t-71.5 17
q-49 0 -80 -8t-60 -24v-332q29 -16 60 -24t80 -8z" />
    <glyph glyph-name="q" unicode="q" horiz-adv-x="535" 
d="M260 -10q-60 0 -100 20.5t-63 55.5t-32.5 82.5t-9.5 101.5t9.5 101.5t32.5 82.5t63 55.5t100 20.5q41 0 79 -13t77 -38l15 41h39v-750h-70v281q-32 -21 -68.5 -31t-71.5 -10zM260 52q49 0 80 8t60 24v332q-29 16 -60 24t-80 8q-45 0 -71.5 -17t-41 -45t-18.5 -63.5
t-4 -72.5t4 -72.5t18.5 -63.5t41 -45t71.5 -17z" />
    <glyph glyph-name="r" unicode="r" horiz-adv-x="363" 
d="M340 440q-24 8 -60 8q-51 0 -84 -8t-61 -24v-416h-70v500h39l15 -42q35 26 77 39t84 13q17 0 31.5 -1.5t28.5 -3.5v-65z" />
    <glyph glyph-name="s" unicode="s" horiz-adv-x="460" 
d="M118 362q0 -17 4.5 -29.5t16.5 -21.5t34.5 -15t58.5 -9q53 -5 87.5 -16.5t54 -29.5t27 -42t7.5 -55q0 -29 -10 -56.5t-33.5 -49.5t-62 -35t-95.5 -13q-18 0 -39 2t-41.5 5.5t-38.5 8t-30 9.5v60q23 -8 59.5 -15.5t90.5 -7.5q39 0 64.5 7.5t40.5 20.5t21 29t6 34
q0 17 -3.5 31.5t-15.5 25.5t-34.5 18.5t-59.5 10.5q-54 5 -88.5 16.5t-53.5 29t-26 39.5t-7 48q0 27 9.5 53.5t31 47.5t57.5 34t89 13q35 0 73 -5.5t71 -19.5v-60q-29 10 -62 16.5t-83 6.5q-37 0 -60.5 -6.5t-36.5 -18t-18 -27.5t-5 -34z" />
    <glyph glyph-name="t" unicode="t" horiz-adv-x="375" 
d="M325 -6q-9 -2 -22 -3t-23 -1q-31 0 -60 7.5t-51 24t-35.5 42t-13.5 62.5v319h-100v31l100 29v135l70 20v-160h155v-55h-155v-311q0 -46 24 -66t72 -20q10 0 19.5 0.5t19.5 1.5v-56z" />
    <glyph glyph-name="u" unicode="u" horiz-adv-x="500" 
d="M130 137q0 -49 26.5 -67t73.5 -18q49 0 78 8t57 24v416h70v-500h-39l-15 42q-70 -52 -151 -52q-90 0 -130 39t-40 111v360h70v-363z" />
    <glyph glyph-name="v" unicode="v" horiz-adv-x="480" 
d="M97 500l143 -410l143 410h77l-195 -510h-50l-195 510h77z" />
    <glyph glyph-name="w" unicode="w" horiz-adv-x="700" 
d="M680 500l-141 -510h-52l-137 435l-137 -435h-52l-141 510h75l94 -392l124 392h74l124 -392l94 392h75z" />
    <glyph glyph-name="x" unicode="x" horiz-adv-x="490" 
d="M20 0l185 257l-175 243h83l132 -196l132 196h83l-175 -243l185 -257h-83l-142 210l-142 -210h-83z" />
    <glyph glyph-name="y" unicode="y" horiz-adv-x="480" 
d="M100 500l140 -410l140 410h80l-288 -750h-75l113 263l-190 487h80z" />
    <glyph glyph-name="z" unicode="z" horiz-adv-x="455" 
d="M35 0v45l293 396h-278v59h365v-45l-293 -396h303v-59h-390z" />
    <glyph glyph-name="braceleft" unicode="{" horiz-adv-x="210" 
d="M28 338q23 0 33 9.5t9 29.5l-18 330q-3 58 28.5 83.5t84.5 25.5h15v-66h-15q-44 0 -42 -39l18 -330q1 -23 -7.5 -42.5t-22.5 -33.5q14 -14 22.5 -33.5t7.5 -42.5l-18 -330q-2 -39 42 -39h15v-66h-15q-53 0 -84.5 25.5t-28.5 83.5l18 330q2 36 -37 39h-15v66h10z" />
    <glyph glyph-name="bar" unicode="|" horiz-adv-x="245" 
d="M87 -206v1022h71v-1022h-71z" />
    <glyph glyph-name="braceright" unicode="}" horiz-adv-x="210" 
d="M192 338v-66h-15q-39 -3 -37 -39l18 -330q3 -58 -28.5 -83.5t-84.5 -25.5h-15v66h15q44 0 42 39l-18 330q-1 23 9 44t24 32q-14 11 -24 32t-9 44l18 330q2 39 -42 39h-15v66h15q53 0 84.5 -25.5t28.5 -83.5l-18 -330q-2 -39 42 -39h10z" />
    <glyph glyph-name="asciitilde" unicode="~" horiz-adv-x="490" 
d="M342 334q19 0 35.5 4.5t30 10.5t23 13t14.5 12v-65q-13 -12 -39.5 -23t-61.5 -11q-38 0 -62.5 11.5t-44.5 25t-40 25t-49 11.5q-19 0 -35.5 -4.5t-30 -10.5t-23 -13t-14.5 -12v65q13 12 39.5 23t61.5 11q38 0 62.5 -11.5t44.5 -25t40 -25t49 -11.5z" />
    <glyph glyph-name="Zcaron" horiz-adv-x="610" 
d="M40 0v46l427 643l-407 -2v63h495v-46l-427 -643l442 2v-63h-530zM206 900l99 -56l99 56h56l-115 -100h-80l-115 100h56z" />
    <glyph glyph-name="Zcaron" unicode="&#x17d;" horiz-adv-x="610" 
d="M40 0v46l427 643l-407 -2v63h495v-46l-427 -643l442 2v-63h-530zM206 900l99 -56l99 56h56l-115 -100h-80l-115 100h56z" />
    <glyph glyph-name="zcaron" horiz-adv-x="450" 
d="M35 0v45l293 396h-278v59h365v-45l-293 -396h303v-59h-390zM411 750l-145 -200h-80l-145 200h55l130 -141l130 141h55z" />
    <glyph glyph-name="zcaron" unicode="&#x17e;" horiz-adv-x="450" 
d="M35 0v45l293 396h-278v59h365v-45l-293 -396h303v-59h-390zM411 750l-145 -200h-80l-145 200h55l130 -141l130 141h55z" />
    <glyph glyph-name="nonbreakingspace" unicode="&#xa0;" horiz-adv-x="170" 
 />
    <glyph glyph-name="exclamdown" unicode="&#xa1;" horiz-adv-x="190" 
d="M115 290l30 -540h-100l30 540h40zM45 460q0 21 14.5 35.5t35.5 14.5t35.5 -14.5t14.5 -35.5t-14.5 -35.5t-35.5 -14.5t-35.5 14.5t-14.5 35.5z" />
    <glyph glyph-name="cent" unicode="&#xa2;" horiz-adv-x="600" 
d="M421 630q27 -4 54 -10.5t47 -14.5v-60q-29 10 -72.5 19t-97.5 9q-95 0 -150 -51.5t-55 -146.5t55 -146.5t150 -51.5q54 0 97.5 9t72.5 19v-60q-17 -7 -38.5 -12.5t-44.5 -9.5t-45.5 -6t-40.5 -2h-16t-16 1l-39 -116h-75l48 126q-84 23 -131 85t-47 164q0 64 19.5 112.5
t55.5 81.5t87 49.5t114 16.5l39 115h75l-46 -120v0z" />
    <glyph glyph-name="sterling" unicode="&#xa3;" horiz-adv-x="600" 
d="M190 422h279v-61h-279v-300h369v-61h-519v61h80v300h-80v61h80v140q0 43 13.5 79t41.5 62.5t72 41.5t104 15q18 0 43.5 -2.5t52 -6.5t51 -10t41.5 -13v-60q-15 5 -36.5 10t-46.5 9.5t-52 7.5t-53 3q-86 0 -123.5 -31.5t-37.5 -103.5v-141z" />
    <glyph glyph-name="yen" unicode="&#xa5;" horiz-adv-x="600" 
d="M25 750h85l190 -385l190 385h85l-142 -266h112v-66h-147l-46 -86h193v-66h-210v-266h-70v266h-210v66h193l-46 86h-147v66h112z" />
    <glyph glyph-name="section" unicode="&#xa7;" horiz-adv-x="619" 
d="M99 555q0 33 10 69t38 66t77.5 50t128.5 20q69 0 116.5 -10.5t78.5 -24.5v-67q-51 22 -96 30.5t-100 8.5q-56 0 -91.5 -11t-56 -30.5t-28.5 -45.5t-8 -56q0 -38 13 -60.5t37 -36.5t58 -22t77 -16q67 -12 110.5 -26t69.5 -35.5t36.5 -53t10.5 -77.5q0 -21 -4.5 -44.5
t-15 -46t-28 -43.5t-44.5 -37q32 -41 32 -111q0 -33 -10 -69t-38 -66t-77.5 -50t-128.5 -20q-69 0 -116.5 10.5t-78.5 24.5v67q25 -11 48.5 -18.5t47 -12t48 -6.5t52.5 -2q55 0 91 11t56.5 30.5t28.5 45.5t8 56q0 37 -13 60t-37 37t-58 22t-77 16q-67 12 -110.5 26
t-69.5 35.5t-36.5 52.5t-10.5 78q0 21 4.5 44.5t15 46t28 43.5t44.5 37q-17 20 -24.5 47.5t-7.5 63.5zM512 228q0 39 -10.5 61t-31.5 34.5t-52.5 19.5t-74.5 15q-51 8 -90 18.5t-65 24.5q-45 -19 -63 -53t-18 -76q0 -39 10.5 -61t31.5 -35t52.5 -19.5t74.5 -14.5
q50 -9 89 -19t65 -24q45 19 63.5 53t18.5 76z" />
    <glyph glyph-name="dieresis" unicode="&#xa8;" 
d="M140 650q0 21 14.5 35.5t35.5 14.5t35.5 -14.5t14.5 -35.5t-14.5 -35.5t-35.5 -14.5t-35.5 14.5t-14.5 35.5zM330 650q0 21 14.5 35.5t35.5 14.5t35.5 -14.5t14.5 -35.5t-14.5 -35.5t-35.5 -14.5t-35.5 14.5t-14.5 35.5z" />
    <glyph glyph-name="copyright" unicode="&#xa9;" horiz-adv-x="774" 
d="M387 52q60 0 108 17t82 50.5t52.5 82t18.5 111.5q0 62 -18.5 110.5t-52.5 81.5t-82 50.5t-108 17.5t-108 -17.5t-82 -50.5t-52.5 -81.5t-18.5 -110.5q0 -63 18.5 -111.5t52.5 -82t82 -50.5t108 -17zM387 -10q-69 0 -129.5 21.5t-105.5 62.5t-71 101t-26 138t26 138
t71 101t105.5 62t129.5 21t129.5 -21t105.5 -62t71 -101t26 -138t-26 -138t-71 -101t-105.5 -62.5t-129.5 -21.5zM196 313q0 54 16.5 91.5t43.5 61.5t61.5 34.5t70.5 10.5q37 0 66.5 -4.5t62.5 -18.5v-60l-27 9t-26 6.5t-32 4t-45 1.5q-25 0 -47 -7.5t-38.5 -23.5t-26 -42
t-9.5 -63t9.5 -63t26 -42.5t38.5 -24t47 -7.5q27 0 45 1.5t32 4t26 6.5l27 9v-60q-33 -14 -62.5 -18.5t-66.5 -4.5t-71.5 11t-61.5 34.5t-43 61.5t-16 92z" />
    <glyph glyph-name="ordfeminine" unicode="&#xaa;" horiz-adv-x="370" 
d="M261 634q0 35 -17 52.5t-62 17.5q-32 0 -61 -6t-55 -15v55q28 11 59.5 16.5t56.5 5.5q43 0 71 -9t44 -26t22 -40.5t6 -52.5v-257h-42l-7 24q-59 -34 -109 -34q-75 0 -106 32.5t-31 91.5q0 52 33.5 83.5t105.5 35.5l92 5v21zM168 556q-35 -3 -54 -20.5t-19 -46.5
q0 -13 3.5 -25t12 -21.5t23 -15.5t35.5 -6q23 0 47.5 7.5t44.5 18.5v117z" />
    <glyph glyph-name="guillemotleft" unicode="&#xab;" horiz-adv-x="465" 
d="M40 283l190 140v-66l-126 -107l126 -107v-67l-190 141v66zM230 283l190 140v-66l-126 -107l126 -107v-67l-190 141v66z" />
    <glyph glyph-name="logicalnot" unicode="&#xac;" horiz-adv-x="646" 
d="M443 214v222h-363v64h430v-286h-67z" />
    <glyph glyph-name="uni00AD" unicode="&#xad;" horiz-adv-x="310" 
d="M280 272h-250v66h250v-66z" />
    <glyph glyph-name="registered" unicode="&#xae;" horiz-adv-x="314" 
d="M157 760q27 0 52 -5.5t44 -20t30 -41t11 -68.5t-11 -68t-30 -41t-44 -20.5t-52 -5.5t-52 5.5t-44 20.5t-30 41t-11 68t11 68.5t30 41t44 20t52 5.5zM157 728q-22 0 -41 -3.5t-32.5 -15t-21 -31.5t-7.5 -53t7.5 -53t21 -31.5t32.5 -15t41 -3.5t41 3.5t32.5 15t21 31.5
t7.5 53t-7.5 53t-21 31.5t-32.5 15t-41 3.5zM132 604v-51h-32v144h64q28 0 39 -13t11 -33q0 -31 -21 -41l32 -57h-36l-29 51h-28zM180 651q0 7 -3 11.5t-15 4.5h-30v-32h30q12 0 15 4.5t3 11.5z" />
    <glyph glyph-name="macron" unicode="&#xaf;" 
d="M148 680h274v-60h-274v60z" />
    <glyph glyph-name="degree" unicode="&#xb0;" horiz-adv-x="336" 
d="M168 490q-26 0 -50.5 6.5t-44 22t-31.5 41.5t-12 65q0 40 12 66t31.5 41.5t44 21.5t50.5 6q25 0 50 -6t44.5 -21.5t31.5 -41.5t12 -66q0 -39 -12 -65t-31.5 -41.5t-44.5 -22t-50 -6.5zM168 705q-36 0 -57.5 -18t-21.5 -62t21.5 -62t57.5 -18t57.5 18t21.5 62t-21.5 62
t-57.5 18z" />
    <glyph glyph-name="plusminus" unicode="&#xb1;" horiz-adv-x="490" 
d="M212 207v167h-167v66h167v167h66v-167h167v-66h-167v-167h-66zM45 75v66h400v-66h-400z" />
    <glyph glyph-name="twosuperior" unicode="&#xb2;" horiz-adv-x="416" 
d="M35 341v50q82 54 133 89t79 60t37.5 44.5t9.5 43.5q0 32 -23 50.5t-80 18.5q-26 0 -59.5 -5t-75.5 -17v61q12 5 29 9.5t35.5 7.5t36.5 5t33 2q48 0 80.5 -10.5t52.5 -28.5t28.5 -42.5t8.5 -51.5q0 -31 -17 -58.5t-47 -54t-72 -54t-92 -59.5h244v-60h-341z" />
    <glyph glyph-name="threesuperior" unicode="&#xb3;" horiz-adv-x="430" 
d="M207 331q-22 0 -45 1.5t-44.5 4.5t-40.5 7t-32 9v62q54 -16 93.5 -19.5t69.5 -3.5q60 0 89.5 18t29.5 50q0 37 -18.5 51.5t-71.5 14.5h-117v58h116q45 0 60 15t15 44q0 26 -25.5 40.5t-79.5 14.5q-19 0 -36.5 -1t-35.5 -3t-38 -6t-44 -10v61q26 11 67.5 16t85.5 5
q171 0 171 -117q0 -32 -13.5 -52t-29.5 -28q25 -9 43.5 -34.5t18.5 -69.5q0 -57 -46 -92.5t-142 -35.5z" />
    <glyph glyph-name="acute" unicode="&#xb4;" 
d="M260 550l50 200h80l-80 -200h-50z" />
    <glyph glyph-name="paragraph" unicode="&#xb6;" horiz-adv-x="590" 
d="M447 300h-77v-300h-68v300h-16q-70 0 -118 18.5t-77.5 50t-42.5 72t-13 84.5t13 84.5t42.5 72t77.5 50t118 18.5h229v-750h-68v300zM109 525q0 -27 6.5 -55.5t24.5 -52.5t51 -39t86 -15h25v324h-25q-53 0 -86 -15t-51 -39t-24.5 -52.5t-6.5 -55.5zM447 687h-77v-324h77
v324z" />
    <glyph glyph-name="periodcentered" unicode="&#xb7;" horiz-adv-x="160" 
d="M45 305q0 21 14.5 35.5t35.5 14.5t35.5 -14.5t14.5 -35.5t-14.5 -35.5t-35.5 -14.5t-35.5 14.5t-14.5 35.5z" />
    <glyph glyph-name="cedilla" unicode="&#xb8;" 
d="M305 0l5 -64q15 -4 31.5 -11t31 -18t23.5 -28t9 -40q0 -41 -29 -65t-82 -24q-41 0 -63.5 6.5t-30.5 11.5v46q11 -4 23 -7q11 -2 24.5 -4t29.5 -2q31 0 49 8.5t18 27.5q0 16 -7.5 27t-19.5 18.5t-28 11.5t-34 6l10 100h40z" />
    <glyph glyph-name="onesuperior" unicode="&#xb9;" horiz-adv-x="290" 
d="M213 760v-419h-68v348l-108 -3v32l145 42h31z" />
    <glyph glyph-name="ordmasculine" unicode="&#xba;" horiz-adv-x="419" 
d="M35 563q0 97 40 147t131 50t134.5 -50t43.5 -147t-43.5 -147.5t-134.5 -50.5t-131 50.5t-40 147.5zM97 563q0 -75 26 -107.5t83 -32.5q59 0 88 33.5t29 106.5t-29 106t-88 33q-57 0 -83 -32t-26 -107z" />
    <glyph glyph-name="guillemotright" unicode="&#xbb;" horiz-adv-x="465" 
d="M425 216l-190 -140v66l126 107l-126 107v67l190 -141v-66zM235 216l-190 -140v66l126 107l-126 107v67l190 -141v-66z" />
    <glyph glyph-name="onequarter" unicode="&#xbc;" horiz-adv-x="933" 
d="M213 760v-419h-68v348l-108 -3v32l145 42h31zM120 0l530 750h77l-530 -750h-77zM808 0h-65v118h-233v41l250 260h48v-240h85v-61h-85v-118zM743 179v139l-135 -139h135z" />
    <glyph glyph-name="onehalf" unicode="&#xbd;" horiz-adv-x="946" 
d="M213 760v-419h-68v348l-108 -3v32l145 42h31zM120 0l530 750h77l-530 -750h-77zM575 0v50q82 54 133 89t79 60t37.5 44.5t9.5 43.5q0 32 -23 50.5t-80 18.5q-26 0 -59.5 -5t-75.5 -17v61q12 5 29 9.5t35.5 7.5t36.5 5t33 2q48 0 80.5 -10.5t52.5 -28.5t28.5 -42.5
t8.5 -51.5q0 -31 -17 -58.5t-47 -54t-72 -54t-92 -59.5h244v-60h-341z" />
    <glyph glyph-name="threequarters" unicode="&#xbe;" horiz-adv-x="1063" 
d="M207 331q-22 0 -45 1.5t-44.5 4.5t-40.5 7t-32 9v62q54 -16 93.5 -19.5t69.5 -3.5q60 0 89.5 18t29.5 50q0 37 -18.5 51.5t-71.5 14.5h-117v58h116q45 0 60 15t15 44q0 26 -25.5 40.5t-79.5 14.5q-19 0 -36.5 -1t-35.5 -3t-38 -6t-44 -10v61q26 11 67.5 16t85.5 5
q171 0 171 -117q0 -32 -13.5 -52t-29.5 -28q25 -9 43.5 -34.5t18.5 -69.5q0 -57 -46 -92.5t-142 -35.5zM250 0l530 750h77l-530 -750h-77zM938 0h-65v118h-233v41l250 260h48v-240h85v-61h-85v-118zM873 179v139l-135 -139h135z" />
    <glyph glyph-name="questiondown" unicode="&#xbf;" horiz-adv-x="470" 
d="M290 -198q54 0 93 7.5t62 15.5v-60q-12 -5 -31 -9.5t-40 -8t-43 -5.5t-40 -2q-79 0 -127 16.5t-74.5 44t-35.5 63.5t-9 74q0 47 13 79t37 55t58 40t76 34q27 11 42 24.5t22 31t8.5 39t1.5 49.5h37q6 -30 8.5 -58.5t-6 -54.5t-31.5 -48t-68 -39q-25 -9 -48.5 -19.5
t-42 -26.5t-29.5 -41t-11 -64q0 -31 7 -56.5t26.5 -43.5t54 -27.5t90.5 -9.5zM252 460q0 21 14.5 35.5t35.5 14.5t35.5 -14.5t14.5 -35.5t-14.5 -35.5t-35.5 -14.5t-35.5 14.5t-14.5 35.5z" />
    <glyph glyph-name="Agrave" unicode="&#xc0;" horiz-adv-x="630" 
d="M25 0l265 760h50l265 -760h-77l-69 210h-288l-69 -210h-77zM190 269h249l-124 377zM290 800l-90 100h90l50 -100h-50z" />
    <glyph glyph-name="Aacute" unicode="&#xc1;" horiz-adv-x="630" 
d="M25 0l265 760h50l265 -760h-77l-69 210h-288l-69 -210h-77zM190 269h249l-124 377zM290 800l50 100h90l-90 -100h-50z" />
    <glyph glyph-name="Acircumflex" unicode="&#xc2;" horiz-adv-x="630" 
d="M25 0l265 760h50l265 -760h-77l-69 210h-288l-69 -210h-77zM190 269h249l-124 377zM414 800l-99 56l-99 -56h-56l115 100h80l115 -100h-56z" />
    <glyph glyph-name="Atilde" unicode="&#xc3;" horiz-adv-x="630" 
d="M25 0l265 760h50l265 -760h-77l-69 210h-288l-69 -210h-77zM190 269h249l-124 377zM395 849q17 0 26.5 5t14.5 13t6.5 16.5t1.5 16.5h56q4 -53 -25.5 -81.5t-83.5 -28.5q-27 0 -46.5 9.5t-36 21t-31.5 21t-34 9.5q-17 0 -26.5 -5t-14.5 -13t-6.5 -17t-1.5 -16h-56
q-4 53 25.5 81.5t83.5 28.5q27 0 46.5 -9.5t36 -21t31.5 -21t34 -9.5z" />
    <glyph glyph-name="Adieresis" unicode="&#xc4;" horiz-adv-x="630" 
d="M25 0l265 760h50l265 -760h-77l-69 210h-288l-69 -210h-77zM190 269h249l-124 377zM360 850q0 21 14.5 35.5t35.5 14.5t35.5 -14.5t14.5 -35.5t-14.5 -35.5t-35.5 -14.5t-35.5 14.5t-14.5 35.5zM170 850q0 21 14.5 35.5t35.5 14.5t35.5 -14.5t14.5 -35.5t-14.5 -35.5
t-35.5 -14.5t-35.5 14.5t-14.5 35.5z" />
    <glyph glyph-name="Aring" unicode="&#xc5;" horiz-adv-x="630" 
d="M25 0l265 760h50l265 -760h-77l-69 210h-288l-69 -210h-77zM190 269h249l-124 377zM315 828q44 0 44 22t-44 22t-44 -22t44 -22zM315 921q19 0 36 -3.5t30 -11.5t20.5 -21.5t7.5 -34.5t-7.5 -34.5t-20.5 -21.5t-30 -11.5t-36 -3.5t-36 3.5t-30 11.5t-20.5 21.5t-7.5 34.5
t7.5 34.5t20.5 21.5t30 11.5t36 3.5z" />
    <glyph glyph-name="AE" unicode="&#xc6;" horiz-adv-x="975" 
d="M518 422h362v-63h-351l48 -296h338v-63h-396l-35 210h-287l-101 -210h-76l376 750h519v-63h-440zM226 269h249l-63 386z" />
    <glyph glyph-name="Ccedilla" unicode="&#xc7;" horiz-adv-x="610" 
d="M60 375q0 80 14.5 150t49 122.5t91 82.5t140.5 30q69 0 116.5 -10.5t78.5 -24.5v-67q-26 10 -49 17.5t-46 12.5t-47.5 7t-52.5 2q-62 0 -104.5 -25t-68.5 -68.5t-38 -102t-12 -126.5t12 -126.5t38 -102t68.5 -68.5t104.5 -25q28 0 52.5 2t47.5 7t46 12t49 18v-67
q-29 -13 -71.5 -22.5t-102.5 -11.5l4 -55q15 -4 31.5 -11t31 -18t23.5 -28t9 -40q0 -41 -29 -65t-82 -24q-41 0 -63.5 6.5t-30.5 11.5v46q11 -4 23 -7q11 -2 24.5 -4t29.5 -2q31 0 49 8.5t18 27.5q0 16 -7.5 27t-19.5 18.5t-28 11.5t-34 6l9 91q-78 4 -130.5 35.5t-84.5 83
t-45.5 120t-13.5 145.5z" />
    <glyph glyph-name="Egrave" unicode="&#xc8;" 
d="M475 359h-332v-296h367v-63h-435v750h435v-63h-367v-265h332v-63zM275 800l-90 100h90l50 -100h-50z" />
    <glyph glyph-name="Eacute" unicode="&#xc9;" 
d="M475 359h-332v-296h367v-63h-435v750h435v-63h-367v-265h332v-63zM275 800l50 100h90l-90 -100h-50z" />
    <glyph glyph-name="Ecircumflex" unicode="&#xca;" 
d="M475 359h-332v-296h367v-63h-435v750h435v-63h-367v-265h332v-63zM399 800l-99 56l-99 -56h-56l115 100h80l115 -100h-56z" />
    <glyph glyph-name="Edieresis" unicode="&#xcb;" 
d="M475 359h-332v-296h367v-63h-435v750h435v-63h-367v-265h332v-63zM345 850q0 21 14.5 35.5t35.5 14.5t35.5 -14.5t14.5 -35.5t-14.5 -35.5t-35.5 -14.5t-35.5 14.5t-14.5 35.5zM155 850q0 21 14.5 35.5t35.5 14.5t35.5 -14.5t14.5 -35.5t-14.5 -35.5t-35.5 -14.5
t-35.5 14.5t-14.5 35.5z" />
    <glyph glyph-name="Igrave" unicode="&#xcc;" horiz-adv-x="260" 
d="M95 0v750h70v-750h-70zM106 800l-90 100h90l50 -100h-50z" />
    <glyph glyph-name="Iacute" unicode="&#xcd;" horiz-adv-x="260" 
d="M95 0v750h70v-750h-70zM106 800l50 100h90l-90 -100h-50z" />
    <glyph glyph-name="Icircumflex" unicode="&#xce;" horiz-adv-x="260" 
d="M95 0v750h70v-750h-70zM230 800l-99 56l-99 -56h-56l115 100h80l115 -100h-56z" />
    <glyph glyph-name="Idieresis" unicode="&#xcf;" horiz-adv-x="260" 
d="M155 850q0 21 14.5 35.5t35.5 14.5t35.5 -14.5t14.5 -35.5t-14.5 -35.5t-35.5 -14.5t-35.5 14.5t-14.5 35.5zM5 850q0 21 14.5 35.5t35.5 14.5t35.5 -14.5t14.5 -35.5t-14.5 -35.5t-35.5 -14.5t-35.5 14.5t-14.5 35.5zM95 0v750h70v-750h-70z" />
    <glyph glyph-name="Eth" unicode="&#xd0;" horiz-adv-x="685" 
d="M15 415h90v335h204q92 0 153 -28.5t97 -79t51 -119t15 -148.5t-15 -148.5t-51 -119t-97 -79t-153 -28.5h-204v362h-90v53zM173 415h183v-53h-183v-299h140q67 0 113 23.5t74.5 65t40.5 98.5t12 125q0 67 -12 124.5t-40.5 99t-74.5 65t-113 23.5h-140v-272z" />
    <glyph glyph-name="Ntilde" unicode="&#xd1;" horiz-adv-x="670" 
d="M544 0l-403 611l2 -611h-68v750h51l403 -611l-2 611h68v-750h-51zM415 849q17 0 26.5 5t14.5 13t6.5 16.5t1.5 16.5h56q4 -53 -25.5 -81.5t-83.5 -28.5q-27 0 -46.5 9.5t-36 21t-31.5 21t-34 9.5q-17 0 -26.5 -5t-14.5 -13t-6.5 -17t-1.5 -16h-56q-4 53 25.5 81.5
t83.5 28.5q27 0 46.5 -9.5t36 -21t31.5 -21t34 -9.5z" />
    <glyph glyph-name="Ograve" unicode="&#xd2;" horiz-adv-x="680" 
d="M340 53q68 0 109 25t63 68.5t29 102t7 126.5q0 67 -7 126t-29 102.5t-63 68.5t-109 25t-109 -25t-63 -68.5t-29 -102.5t-7 -126q0 -68 7 -126.5t29 -102t63 -68.5t109 -25zM340 -10q-92 0 -147 32.5t-84.5 86.5t-39 123t-9.5 143q0 73 9.5 142.5t39 123.5t84.5 86.5
t147 32.5t147 -32.5t84.5 -86.5t39 -123.5t9.5 -142.5q0 -74 -9.5 -143t-39 -123t-84.5 -86.5t-147 -32.5zM315 800l-90 100h90l50 -100h-50z" />
    <glyph glyph-name="Oacute" unicode="&#xd3;" horiz-adv-x="680" 
d="M340 53q68 0 109 25t63 68.5t29 102t7 126.5q0 67 -7 126t-29 102.5t-63 68.5t-109 25t-109 -25t-63 -68.5t-29 -102.5t-7 -126q0 -68 7 -126.5t29 -102t63 -68.5t109 -25zM340 -10q-92 0 -147 32.5t-84.5 86.5t-39 123t-9.5 143q0 73 9.5 142.5t39 123.5t84.5 86.5
t147 32.5t147 -32.5t84.5 -86.5t39 -123.5t9.5 -142.5q0 -74 -9.5 -143t-39 -123t-84.5 -86.5t-147 -32.5zM315 800l50 100h90l-90 -100h-50z" />
    <glyph glyph-name="Ocircumflex" unicode="&#xd4;" horiz-adv-x="680" 
d="M340 53q68 0 109 25t63 68.5t29 102t7 126.5q0 67 -7 126t-29 102.5t-63 68.5t-109 25t-109 -25t-63 -68.5t-29 -102.5t-7 -126q0 -68 7 -126.5t29 -102t63 -68.5t109 -25zM340 -10q-92 0 -147 32.5t-84.5 86.5t-39 123t-9.5 143q0 73 9.5 142.5t39 123.5t84.5 86.5
t147 32.5t147 -32.5t84.5 -86.5t39 -123.5t9.5 -142.5q0 -74 -9.5 -143t-39 -123t-84.5 -86.5t-147 -32.5zM439 800l-99 56l-99 -56h-56l115 100h80l115 -100h-56z" />
    <glyph glyph-name="Otilde" unicode="&#xd5;" horiz-adv-x="680" 
d="M340 53q68 0 109 25t63 68.5t29 102t7 126.5q0 67 -7 126t-29 102.5t-63 68.5t-109 25t-109 -25t-63 -68.5t-29 -102.5t-7 -126q0 -68 7 -126.5t29 -102t63 -68.5t109 -25zM340 -10q-92 0 -147 32.5t-84.5 86.5t-39 123t-9.5 143q0 73 9.5 142.5t39 123.5t84.5 86.5
t147 32.5t147 -32.5t84.5 -86.5t39 -123.5t9.5 -142.5q0 -74 -9.5 -143t-39 -123t-84.5 -86.5t-147 -32.5zM420 849q17 0 26.5 5t14.5 13t6.5 16.5t1.5 16.5h56q4 -53 -25.5 -81.5t-83.5 -28.5q-27 0 -46.5 9.5t-36 21t-31.5 21t-34 9.5q-17 0 -26.5 -5t-14.5 -13t-6.5 -17
t-1.5 -16h-56q-4 53 25.5 81.5t83.5 28.5q27 0 46.5 -9.5t36 -21t31.5 -21t34 -9.5z" />
    <glyph glyph-name="Odieresis" unicode="&#xd6;" horiz-adv-x="680" 
d="M340 53q68 0 109 25t63 68.5t29 102t7 126.5q0 67 -7 126t-29 102.5t-63 68.5t-109 25t-109 -25t-63 -68.5t-29 -102.5t-7 -126q0 -68 7 -126.5t29 -102t63 -68.5t109 -25zM340 -10q-92 0 -147 32.5t-84.5 86.5t-39 123t-9.5 143q0 73 9.5 142.5t39 123.5t84.5 86.5
t147 32.5t147 -32.5t84.5 -86.5t39 -123.5t9.5 -142.5q0 -74 -9.5 -143t-39 -123t-84.5 -86.5t-147 -32.5zM385 850q0 21 14.5 35.5t35.5 14.5t35.5 -14.5t14.5 -35.5t-14.5 -35.5t-35.5 -14.5t-35.5 14.5t-14.5 35.5zM195 850q0 21 14.5 35.5t35.5 14.5t35.5 -14.5
t14.5 -35.5t-14.5 -35.5t-35.5 -14.5t-35.5 14.5t-14.5 35.5z" />
    <glyph glyph-name="multiply" unicode="&#xd7;" horiz-adv-x="490" 
d="M198 341l-150 150l47 47l150 -150l150 150l47 -47l-150 -150l150 -150l-47 -47l-150 150l-150 -150l-47 47z" />
    <glyph glyph-name="Oslash" unicode="&#xd8;" horiz-adv-x="660" 
d="M340 -10q-58 0 -100 13t-73 36l-24 -39h-63l48 78q-21 28 -34.5 62t-21 72t-10 79.5t-2.5 83.5q0 73 9.5 142.5t39 123.5t84.5 86.5t147 32.5q57 0 99.5 -13.5t73.5 -36.5l24 40h63l-48 -79q21 -27 34 -61t20.5 -72.5t10.5 -79.5t3 -83q0 -74 -9.5 -143t-39 -123
t-84.5 -86.5t-147 -32.5zM340 53q68 0 109 25t63 68.5t29 102t7 126.5t-7 126.5t-30 102.5l-308 -506q23 -22 56.5 -33.5t80.5 -11.5zM132 375q0 -69 6.5 -127.5t29.5 -102.5l309 506q-23 22 -56.5 34t-80.5 12q-68 0 -109 -25t-63 -68.5t-29 -102.5t-7 -126z" />
    <glyph glyph-name="Ugrave" unicode="&#xd9;" horiz-adv-x="670" 
d="M335 53q25 0 59 5t64.5 24t52 57.5t21.5 106.5v504h68v-515q0 -53 -13.5 -92t-35.5 -66t-50 -44t-57.5 -26.5t-58 -13t-50.5 -3.5q-34 0 -79.5 8.5t-87 34.5t-70 74t-28.5 128v515h68v-504q0 -68 21.5 -106.5t52 -57.5t64.5 -24t59 -5zM310 800l-90 100h90l50 -100h-50z
" />
    <glyph glyph-name="Uacute" unicode="&#xda;" horiz-adv-x="670" 
d="M335 53q25 0 59 5t64.5 24t52 57.5t21.5 106.5v504h68v-515q0 -53 -13.5 -92t-35.5 -66t-50 -44t-57.5 -26.5t-58 -13t-50.5 -3.5q-34 0 -79.5 8.5t-87 34.5t-70 74t-28.5 128v515h68v-504q0 -68 21.5 -106.5t52 -57.5t64.5 -24t59 -5zM310 800l50 100h90l-90 -100h-50z
" />
    <glyph glyph-name="Ucircumflex" unicode="&#xdb;" horiz-adv-x="670" 
d="M335 53q25 0 59 5t64.5 24t52 57.5t21.5 106.5v504h68v-515q0 -53 -13.5 -92t-35.5 -66t-50 -44t-57.5 -26.5t-58 -13t-50.5 -3.5q-34 0 -79.5 8.5t-87 34.5t-70 74t-28.5 128v515h68v-504q0 -68 21.5 -106.5t52 -57.5t64.5 -24t59 -5zM434 800l-99 56l-99 -56h-56
l115 100h80l115 -100h-56z" />
    <glyph glyph-name="Udieresis" unicode="&#xdc;" horiz-adv-x="670" 
d="M335 53q25 0 59 5t64.5 24t52 57.5t21.5 106.5v504h68v-515q0 -53 -13.5 -92t-35.5 -66t-50 -44t-57.5 -26.5t-58 -13t-50.5 -3.5q-34 0 -79.5 8.5t-87 34.5t-70 74t-28.5 128v515h68v-504q0 -68 21.5 -106.5t52 -57.5t64.5 -24t59 -5zM380 850q0 21 14.5 35.5t35.5 14.5
t35.5 -14.5t14.5 -35.5t-14.5 -35.5t-35.5 -14.5t-35.5 14.5t-14.5 35.5zM190 850q0 21 14.5 35.5t35.5 14.5t35.5 -14.5t14.5 -35.5t-14.5 -35.5t-35.5 -14.5t-35.5 14.5t-14.5 35.5z" />
    <glyph glyph-name="Yacute" unicode="&#xdd;" horiz-adv-x="670" 
d="M369 310v-310h-68v310l-271 440h75l230 -385l230 385h75zM310 800l50 100h90l-90 -100h-50z" />
    <glyph glyph-name="Thorn" unicode="&#xde;" 
d="M143 0h-68v750h68v-150h161q70 0 118 -18.5t77.5 -50t42.5 -72t13 -84.5t-13 -84.5t-42.5 -72t-77.5 -50t-118 -18.5h-161v-150zM143 213h170q53 0 86 15t51 39t24.5 52.5t6.5 55.5t-6.5 55.5t-24.5 52.5t-51 39t-86 15h-170v-324z" />
    <glyph glyph-name="germandbls" unicode="&#xdf;" horiz-adv-x="538" 
d="M346 -10q-32 0 -64.5 6.5t-57.5 20.5v60q23 -8 52.5 -16.5t69.5 -8.5q31 0 50.5 7.5t30.5 20t15 28.5t4 34t-4 31t-14 23.5t-28.5 19t-46.5 17.5q-39 12 -64.5 25t-40.5 29.5t-21 37t-6 47.5q0 35 11.5 57.5t29 39t37.5 29t37.5 27.5t29 34.5t11.5 50.5q0 24 -9 41
t-24.5 27.5t-36 15t-43.5 4.5t-43.5 -4.5t-36 -15t-24.5 -27.5t-9 -41v-610h-67v610q0 72 45 111t135 39t133.5 -39t43.5 -111q0 -39 -11.5 -64.5t-28.5 -43.5t-37.5 -31t-37.5 -26.5t-28.5 -30.5t-11.5 -42q0 -16 3.5 -27.5t13 -20.5t25.5 -16.5t41 -15.5q38 -12 65.5 -25
t45 -30t25.5 -40t8 -54q0 -29 -9 -56.5t-28.5 -49t-51.5 -34.5t-78 -13z" />
    <glyph glyph-name="agrave" unicode="&#xe0;" horiz-adv-x="495" 
d="M360 343q0 27 -5.5 47t-19 33t-36.5 19t-58 6q-51 0 -86 -7.5t-64 -17.5v60q33 14 73.5 20.5t76.5 6.5q56 0 92.5 -12t58 -34.5t30 -53.5t8.5 -68v-342h-39l-15 40q-34 -25 -73.5 -37.5t-77.5 -12.5q-49 0 -82.5 13.5t-54 35.5t-29.5 51t-9 61t9.5 59t30.5 47.5t55 33.5
t83 16l132 8v28zM223 253q-54 -5 -78 -31.5t-24 -70.5q0 -17 3 -34.5t14 -32t32 -23.5t57 -9q41 0 71 10.5t62 29.5v174zM217 550l-80 200h80l50 -200h-50z" />
    <glyph glyph-name="aacute" unicode="&#xe1;" horiz-adv-x="495" 
d="M360 343q0 27 -5.5 47t-19 33t-36.5 19t-58 6q-51 0 -86 -7.5t-64 -17.5v60q33 14 73.5 20.5t76.5 6.5q56 0 92.5 -12t58 -34.5t30 -53.5t8.5 -68v-342h-39l-15 40q-34 -25 -73.5 -37.5t-77.5 -12.5q-49 0 -82.5 13.5t-54 35.5t-29.5 51t-9 61t9.5 59t30.5 47.5t55 33.5
t83 16l132 8v28zM223 253q-54 -5 -78 -31.5t-24 -70.5q0 -17 3 -34.5t14 -32t32 -23.5t57 -9q41 0 71 10.5t62 29.5v174zM217 550l50 200h80l-80 -200h-50z" />
    <glyph glyph-name="acircumflex" unicode="&#xe2;" horiz-adv-x="495" 
d="M360 343q0 27 -5.5 47t-19 33t-36.5 19t-58 6q-51 0 -86 -7.5t-64 -17.5v60q33 14 73.5 20.5t76.5 6.5q56 0 92.5 -12t58 -34.5t30 -53.5t8.5 -68v-342h-39l-15 40q-34 -25 -73.5 -37.5t-77.5 -12.5q-49 0 -82.5 13.5t-54 35.5t-29.5 51t-9 61t9.5 59t30.5 47.5t55 33.5
t83 16l132 8v28zM223 253q-54 -5 -78 -31.5t-24 -70.5q0 -17 3 -34.5t14 -32t32 -23.5t57 -9q41 0 71 10.5t62 29.5v174zM372 550l-130 141l-130 -141h-55l145 200h80l145 -200h-55z" />
    <glyph glyph-name="atilde" unicode="&#xe3;" horiz-adv-x="495" 
d="M360 343q0 27 -5.5 47t-19 33t-36.5 19t-58 6q-51 0 -86 -7.5t-64 -17.5v60q33 14 73.5 20.5t76.5 6.5q56 0 92.5 -12t58 -34.5t30 -53.5t8.5 -68v-342h-39l-15 40q-34 -25 -73.5 -37.5t-77.5 -12.5q-49 0 -82.5 13.5t-54 35.5t-29.5 51t-9 61t9.5 59t30.5 47.5t55 33.5
t83 16l132 8v28zM223 253q-54 -5 -78 -31.5t-24 -70.5q0 -17 3 -34.5t14 -32t32 -23.5t57 -9q41 0 71 10.5t62 29.5v174zM318 644q17 0 26.5 5t14.5 13t6.5 16.5t1.5 16.5h56q4 -53 -25.5 -81.5t-83.5 -28.5q-31 0 -50 11t-34 24.5t-29 24.5t-35 11q-17 0 -26.5 -5
t-14.5 -13t-6.5 -17t-1.5 -16h-56q-4 53 25.5 81.5t83.5 28.5q31 0 50 -11t34 -24.5t29 -24.5t35 -11z" />
    <glyph glyph-name="adieresis" unicode="&#xe4;" horiz-adv-x="495" 
d="M360 343q0 27 -5.5 47t-19 33t-36.5 19t-58 6q-51 0 -86 -7.5t-64 -17.5v60q33 14 73.5 20.5t76.5 6.5q56 0 92.5 -12t58 -34.5t30 -53.5t8.5 -68v-342h-39l-15 40q-34 -25 -73.5 -37.5t-77.5 -12.5q-49 0 -82.5 13.5t-54 35.5t-29.5 51t-9 61t9.5 59t30.5 47.5t55 33.5
t83 16l132 8v28zM223 253q-54 -5 -78 -31.5t-24 -70.5q0 -17 3 -34.5t14 -32t32 -23.5t57 -9q41 0 71 10.5t62 29.5v174zM97 650q0 21 14.5 35.5t35.5 14.5t35.5 -14.5t14.5 -35.5t-14.5 -35.5t-35.5 -14.5t-35.5 14.5t-14.5 35.5zM287 650q0 21 14.5 35.5t35.5 14.5
t35.5 -14.5t14.5 -35.5t-14.5 -35.5t-35.5 -14.5t-35.5 14.5t-14.5 35.5z" />
    <glyph glyph-name="aring" unicode="&#xe5;" horiz-adv-x="495" 
d="M360 343q0 27 -5.5 47t-19 33t-36.5 19t-58 6q-51 0 -86 -7.5t-64 -17.5v60q33 14 73.5 20.5t76.5 6.5q56 0 92.5 -12t58 -34.5t30 -53.5t8.5 -68v-342h-39l-15 40q-34 -25 -73.5 -37.5t-77.5 -12.5q-49 0 -82.5 13.5t-54 35.5t-29.5 51t-9 61t9.5 59t30.5 47.5t55 33.5
t83 16l132 8v28zM223 253q-54 -5 -78 -31.5t-24 -70.5q0 -17 3 -34.5t14 -32t32 -23.5t57 -9q41 0 71 10.5t62 29.5v174zM242 702q-23 0 -38.5 -12t-15.5 -40t15.5 -40t38.5 -12t38.5 12t15.5 40t-15.5 40t-38.5 12zM242 549q-45 0 -74.5 24.5t-29.5 76.5t29.5 76.5
t74.5 24.5t74.5 -24.5t29.5 -76.5t-29.5 -76.5t-74.5 -24.5z" />
    <glyph glyph-name="ae" unicode="&#xe6;" horiz-adv-x="835" 
d="M380 343q0 55 -29.5 80t-101.5 25q-52 0 -90.5 -7.5t-67.5 -17.5v60q33 14 77 20.5t81 6.5q72 0 114.5 -18.5t62.5 -50.5q24 32 63.5 50.5t100.5 18.5q64 0 101.5 -20.5t57 -55.5t25.5 -82.5t6 -101.5v-26h-330v-6q1 -33 7.5 -63t21.5 -53t42 -36.5t69 -13.5q54 0 91 6
t74 22v-60q-42 -19 -85 -24.5t-80 -5.5q-60 0 -99.5 18t-63.5 50l-31 -24q-34 -25 -76.5 -34.5t-80.5 -9.5q-51 0 -86.5 11.5t-58.5 32t-33.5 48t-10.5 59.5q0 29 8 54.5t28.5 44.5t56 30t91.5 11h146v62zM229 224q-32 0 -53 -6t-33 -17t-17 -26.5t-5 -33.5q0 -17 5 -33
t18.5 -28.5t36.5 -20t60 -7.5q42 0 80 12.5t61 32.5l17 15q-16 48 -19 111v1h-151zM590 448q-43 0 -69.5 -14t-41.5 -37t-21.5 -53t-7.5 -63h260q0 32 -3 62t-15 53.5t-36 37.5t-66 14z" />
    <glyph glyph-name="ccedilla" unicode="&#xe7;" horiz-adv-x="460" 
d="M55 250q0 54 9 101.5t33 82.5t65 55.5t104 20.5q37 0 76.5 -5.5t72.5 -19.5v-60q-29 10 -63 16.5t-87 6.5q-47 0 -75 -17t-42.5 -45t-18.5 -63.5t-4 -72.5t4 -72.5t18.5 -63.5t42.5 -45t75 -17q53 0 87 6.5t63 16.5v-60q-31 -13 -67 -18.5t-71 -6.5l4 -54q15 -4 31.5 -11
t31 -18t23.5 -28t9 -40q0 -41 -29 -65t-82 -24q-41 0 -63.5 6.5t-30.5 11.5v46q11 -4 23 -7q11 -2 24.5 -4t29.5 -2q31 0 49 8.5t18 27.5q0 16 -7.5 27t-19.5 18.5t-28 11.5t-34 6l9 92q-54 5 -88.5 27t-55 56.5t-28.5 79t-8 95.5z" />
    <glyph glyph-name="egrave" unicode="&#xe8;" horiz-adv-x="510" 
d="M55 250q0 54 9 101.5t32.5 82.5t64.5 55.5t104 20.5q64 0 101.5 -20.5t57 -55.5t25.5 -82.5t6 -101.5v-32h-330q1 -33 7.5 -63t21.5 -53t42 -36.5t69 -13.5q54 0 91 6t74 22v-60q-42 -19 -85 -24.5t-80 -5.5q-63 0 -104 20.5t-64.5 55.5t-32.5 82.5t-9 101.5zM265 448
q-44 0 -70.5 -14.5t-41.5 -38.5t-21 -55t-7 -65h260q0 33 -2.5 64.5t-14.5 55.5t-36 38.5t-67 14.5zM241 550l-80 200h80l50 -200h-50z" />
    <glyph glyph-name="eacute" unicode="&#xe9;" horiz-adv-x="510" 
d="M55 250q0 54 9 101.5t32.5 82.5t64.5 55.5t104 20.5q64 0 101.5 -20.5t57 -55.5t25.5 -82.5t6 -101.5v-32h-330q1 -33 7.5 -63t21.5 -53t42 -36.5t69 -13.5q54 0 91 6t74 22v-60q-42 -19 -85 -24.5t-80 -5.5q-63 0 -104 20.5t-64.5 55.5t-32.5 82.5t-9 101.5zM265 448
q-44 0 -70.5 -14.5t-41.5 -38.5t-21 -55t-7 -65h260q0 33 -2.5 64.5t-14.5 55.5t-36 38.5t-67 14.5zM241 550l50 200h80l-80 -200h-50z" />
    <glyph glyph-name="ecircumflex" unicode="&#xea;" horiz-adv-x="510" 
d="M55 250q0 54 9 101.5t32.5 82.5t64.5 55.5t104 20.5q64 0 101.5 -20.5t57 -55.5t25.5 -82.5t6 -101.5v-32h-330q1 -33 7.5 -63t21.5 -53t42 -36.5t69 -13.5q54 0 91 6t74 22v-60q-42 -19 -85 -24.5t-80 -5.5q-63 0 -104 20.5t-64.5 55.5t-32.5 82.5t-9 101.5zM265 448
q-44 0 -70.5 -14.5t-41.5 -38.5t-21 -55t-7 -65h260q0 33 -2.5 64.5t-14.5 55.5t-36 38.5t-67 14.5zM396 550l-130 141l-130 -141h-55l145 200h80l145 -200h-55z" />
    <glyph glyph-name="edieresis" unicode="&#xeb;" horiz-adv-x="510" 
d="M55 250q0 54 9 101.5t32.5 82.5t64.5 55.5t104 20.5q64 0 101.5 -20.5t57 -55.5t25.5 -82.5t6 -101.5v-32h-330q1 -33 7.5 -63t21.5 -53t42 -36.5t69 -13.5q54 0 91 6t74 22v-60q-42 -19 -85 -24.5t-80 -5.5q-63 0 -104 20.5t-64.5 55.5t-32.5 82.5t-9 101.5zM265 448
q-44 0 -70.5 -14.5t-41.5 -38.5t-21 -55t-7 -65h260q0 33 -2.5 64.5t-14.5 55.5t-36 38.5t-67 14.5zM121 650q0 21 14.5 35.5t35.5 14.5t35.5 -14.5t14.5 -35.5t-14.5 -35.5t-35.5 -14.5t-35.5 14.5t-14.5 35.5zM311 650q0 21 14.5 35.5t35.5 14.5t35.5 -14.5t14.5 -35.5
t-14.5 -35.5t-35.5 -14.5t-35.5 14.5t-14.5 35.5z" />
    <glyph glyph-name="igrave" unicode="&#xec;" horiz-adv-x="240" 
d="M191 -10q-54 0 -82 25t-28 85v400h68v-408q0 -26 9.5 -35.5t32.5 -9.5v-57v0zM91 550l-80 200h80l50 -200h-50z" />
    <glyph glyph-name="iacute" unicode="&#xed;" horiz-adv-x="240" 
d="M191 -10q-54 0 -82 25t-28 85v400h68v-408q0 -26 9.5 -35.5t32.5 -9.5v-57v0zM91 550l50 200h80l-80 -200h-50z" />
    <glyph glyph-name="icircumflex" unicode="&#xee;" horiz-adv-x="240" 
d="M191 -10q-54 0 -82 25t-28 85v400h68v-408q0 -26 9.5 -35.5t32.5 -9.5v-57v0zM246 550l-130 141l-130 -141h-55l145 200h80l145 -200h-55z" />
    <glyph glyph-name="idieresis" unicode="&#xef;" horiz-adv-x="240" 
d="M-10 650q0 21 14.5 35.5t35.5 14.5t35.5 -14.5t14.5 -35.5t-14.5 -35.5t-35.5 -14.5t-35.5 14.5t-14.5 35.5zM140 650q0 21 14.5 35.5t35.5 14.5t35.5 -14.5t14.5 -35.5t-14.5 -35.5t-35.5 -14.5t-35.5 14.5t-14.5 35.5zM191 -10q-54 0 -82 25t-28 85v400h68v-408
q0 -26 9.5 -35.5t32.5 -9.5v-57z" />
    <glyph glyph-name="eth" unicode="&#xf0;" horiz-adv-x="550" 
d="M425 691l-77 -39q27 -29 52.5 -67.5t46 -87.5t33.5 -110.5t15 -136.5q0 -57 -10 -105t-35.5 -82.5t-68 -53.5t-106.5 -19t-106.5 19t-67.5 53.5t-35.5 82.5t-10.5 105t10.5 105t35.5 82.5t67.5 53.5t106.5 19q31 0 57 -7t49 -19q-17 40 -41 74t-52 63l-153 -78v59l112 57
q-35 30 -70.5 52.5t-64.5 38.5h114q16 -10 37.5 -24.5t44.5 -35.5l117 60v-59zM425 250q0 42 -5 78.5t-21 63t-45.5 41.5t-78.5 15q-50 0 -79.5 -15t-45 -41.5t-20.5 -63t-5 -78.5t5 -78.5t20.5 -63t45 -41.5t79.5 -15q49 0 78.5 15t45.5 41.5t21 63t5 78.5z" />
    <glyph glyph-name="ntilde" unicode="&#xf1;" horiz-adv-x="500" 
d="M370 363q0 49 -26.5 67t-73.5 18q-49 0 -78 -8t-57 -24v-416h-70v500h39l15 -42q70 52 151 52q90 0 130 -39t40 -111v-360h-70v363zM332 644q17 0 26.5 5t14.5 13t6.5 16.5t1.5 16.5h56q4 -53 -25.5 -81.5t-83.5 -28.5q-31 0 -50 11t-34 24.5t-29 24.5t-35 11
q-17 0 -26.5 -5t-14.5 -13t-6.5 -17t-1.5 -16h-56q-4 53 25.5 81.5t83.5 28.5q31 0 50 -11t34 -24.5t29 -24.5t35 -11z" />
    <glyph glyph-name="ograve" unicode="&#xf2;" horiz-adv-x="530" 
d="M475 250q0 -57 -8.5 -105t-32 -82.5t-64.5 -53.5t-105 -19t-105 19t-64 53.5t-32 82.5t-9 105t9 105t32 82.5t64 53.5t105 19t105 -19t64.5 -53.5t32 -82.5t8.5 -105zM405 250q0 42 -3.5 78.5t-17.5 63t-42 41.5t-77 15q-50 0 -78 -15t-41.5 -41.5t-17 -63t-3.5 -78.5
t3.5 -78.5t17 -63t41.5 -41.5t78 -15q49 0 77 15t42 41.5t17.5 63t3.5 78.5zM241 550l-80 200h80l50 -200h-50z" />
    <glyph glyph-name="oacute" unicode="&#xf3;" horiz-adv-x="530" 
d="M475 250q0 -57 -8.5 -105t-32 -82.5t-64.5 -53.5t-105 -19t-105 19t-64 53.5t-32 82.5t-9 105t9 105t32 82.5t64 53.5t105 19t105 -19t64.5 -53.5t32 -82.5t8.5 -105zM405 250q0 42 -3.5 78.5t-17.5 63t-42 41.5t-77 15q-50 0 -78 -15t-41.5 -41.5t-17 -63t-3.5 -78.5
t3.5 -78.5t17 -63t41.5 -41.5t78 -15q49 0 77 15t42 41.5t17.5 63t3.5 78.5zM241 550l50 200h80l-80 -200h-50z" />
    <glyph glyph-name="ocircumflex" unicode="&#xf4;" horiz-adv-x="530" 
d="M475 250q0 -57 -8.5 -105t-32 -82.5t-64.5 -53.5t-105 -19t-105 19t-64 53.5t-32 82.5t-9 105t9 105t32 82.5t64 53.5t105 19t105 -19t64.5 -53.5t32 -82.5t8.5 -105zM405 250q0 42 -3.5 78.5t-17.5 63t-42 41.5t-77 15q-50 0 -78 -15t-41.5 -41.5t-17 -63t-3.5 -78.5
t3.5 -78.5t17 -63t41.5 -41.5t78 -15q49 0 77 15t42 41.5t17.5 63t3.5 78.5zM396 550l-130 141l-130 -141h-55l145 200h80l145 -200h-55z" />
    <glyph glyph-name="otilde" unicode="&#xf5;" horiz-adv-x="530" 
d="M475 250q0 -57 -8.5 -105t-32 -82.5t-64.5 -53.5t-105 -19t-105 19t-64 53.5t-32 82.5t-9 105t9 105t32 82.5t64 53.5t105 19t105 -19t64.5 -53.5t32 -82.5t8.5 -105zM405 250q0 42 -3.5 78.5t-17.5 63t-42 41.5t-77 15q-50 0 -78 -15t-41.5 -41.5t-17 -63t-3.5 -78.5
t3.5 -78.5t17 -63t41.5 -41.5t78 -15q49 0 77 15t42 41.5t17.5 63t3.5 78.5zM342 644q17 0 26.5 5t14.5 13t6.5 16.5t1.5 16.5h56q4 -53 -25.5 -81.5t-83.5 -28.5q-31 0 -50 11t-34 24.5t-29 24.5t-35 11q-17 0 -26.5 -5t-14.5 -13t-6.5 -17t-1.5 -16h-56q-4 53 25.5 81.5
t83.5 28.5q31 0 50 -11t34 -24.5t29 -24.5t35 -11z" />
    <glyph glyph-name="odieresis" unicode="&#xf6;" horiz-adv-x="530" 
d="M475 250q0 -57 -8.5 -105t-32 -82.5t-64.5 -53.5t-105 -19t-105 19t-64 53.5t-32 82.5t-9 105t9 105t32 82.5t64 53.5t105 19t105 -19t64.5 -53.5t32 -82.5t8.5 -105zM405 250q0 42 -3.5 78.5t-17.5 63t-42 41.5t-77 15q-50 0 -78 -15t-41.5 -41.5t-17 -63t-3.5 -78.5
t3.5 -78.5t17 -63t41.5 -41.5t78 -15q49 0 77 15t42 41.5t17.5 63t3.5 78.5zM121 650q0 21 14.5 35.5t35.5 14.5t35.5 -14.5t14.5 -35.5t-14.5 -35.5t-35.5 -14.5t-35.5 14.5t-14.5 35.5zM311 650q0 21 14.5 35.5t35.5 14.5t35.5 -14.5t14.5 -35.5t-14.5 -35.5t-35.5 -14.5
t-35.5 14.5t-14.5 35.5z" />
    <glyph glyph-name="divide" unicode="&#xf7;" horiz-adv-x="490" 
d="M445 374v-66h-400v66h400zM195 181q0 21 14.5 35.5t35.5 14.5t35.5 -14.5t14.5 -35.5t-14.5 -35.5t-35.5 -14.5t-35.5 14.5t-14.5 35.5zM195 501q0 21 14.5 35.5t35.5 14.5t35.5 -14.5t14.5 -35.5t-14.5 -35.5t-35.5 -14.5t-35.5 14.5t-14.5 35.5z" />
    <glyph glyph-name="oslash" unicode="&#xf8;" horiz-adv-x="530" 
d="M102 54q-27 35 -37 84.5t-10 111.5q0 57 9 105t32 82.5t64 53.5t105 19q41 0 71.5 -8t53.5 -22l13 20h62l-37 -55q27 -35 37 -84.5t10 -110.5q0 -57 -8.5 -105t-32 -82.5t-64.5 -53.5t-105 -19q-79 0 -125 29l-13 -19h-62zM125 250q0 -41 2.5 -75.5t14.5 -60.5l211 312
q-16 11 -37.5 16.5t-50.5 5.5q-50 0 -78 -15t-41.5 -41.5t-17 -63t-3.5 -78.5zM405 250q0 40 -3 74.5t-15 60.5l-211 -312q31 -21 89 -21q49 0 77 15t42 41.5t17.5 63t3.5 78.5z" />
    <glyph glyph-name="ugrave" unicode="&#xf9;" horiz-adv-x="500" 
d="M130 137q0 -49 26.5 -67t73.5 -18q49 0 78 8t57 24v416h70v-500h-39l-15 42q-70 -52 -151 -52q-90 0 -130 39t-40 111v360h70v-363zM223 550l-80 200h80l50 -200h-50z" />
    <glyph glyph-name="uacute" unicode="&#xfa;" horiz-adv-x="500" 
d="M130 137q0 -49 26.5 -67t73.5 -18q49 0 78 8t57 24v416h70v-500h-39l-15 42q-70 -52 -151 -52q-90 0 -130 39t-40 111v360h70v-363zM223 550l50 200h80l-80 -200h-50z" />
    <glyph glyph-name="ucircumflex" unicode="&#xfb;" horiz-adv-x="500" 
d="M130 137q0 -49 26.5 -67t73.5 -18q49 0 78 8t57 24v416h70v-500h-39l-15 42q-70 -52 -151 -52q-90 0 -130 39t-40 111v360h70v-363zM378 550l-130 141l-130 -141h-55l145 200h80l145 -200h-55z" />
    <glyph glyph-name="udieresis" unicode="&#xfc;" horiz-adv-x="500" 
d="M130 137q0 -49 26.5 -67t73.5 -18q49 0 78 8t57 24v416h70v-500h-39l-15 42q-70 -52 -151 -52q-90 0 -130 39t-40 111v360h70v-363zM103 650q0 21 14.5 35.5t35.5 14.5t35.5 -14.5t14.5 -35.5t-14.5 -35.5t-35.5 -14.5t-35.5 14.5t-14.5 35.5zM293 650q0 21 14.5 35.5
t35.5 14.5t35.5 -14.5t14.5 -35.5t-14.5 -35.5t-35.5 -14.5t-35.5 14.5t-14.5 35.5z" />
    <glyph glyph-name="yacute" unicode="&#xfd;" horiz-adv-x="480" 
d="M100 500l140 -410l140 410h80l-288 -750h-75l113 263l-190 487h80zM216 550l50 200h80l-80 -200h-50z" />
    <glyph glyph-name="thorn" unicode="&#xfe;" horiz-adv-x="535" 
d="M480 250q0 -54 -9.5 -101.5t-32.5 -82.5t-63 -55.5t-100 -20.5q-35 0 -71.5 10t-68.5 31v-281h-70v1000h70v-281q32 21 68.5 31t71.5 10q60 0 100 -20.5t63 -55.5t32.5 -82.5t9.5 -101.5zM275 448q-49 0 -80 -8t-60 -24v-332q29 -16 60 -24t80 -8q45 0 71.5 17t41 45
t18.5 63.5t4 72.5t-4 72.5t-18.5 63.5t-41 45t-71.5 17z" />
    <glyph glyph-name="ydieresis" unicode="&#xff;" horiz-adv-x="480" 
d="M100 500l140 -410l140 410h80l-288 -750h-75l113 263l-190 487h80zM96 650q0 21 14.5 35.5t35.5 14.5t35.5 -14.5t14.5 -35.5t-14.5 -35.5t-35.5 -14.5t-35.5 14.5t-14.5 35.5zM286 650q0 21 14.5 35.5t35.5 14.5t35.5 -14.5t14.5 -35.5t-14.5 -35.5t-35.5 -14.5
t-35.5 14.5t-14.5 35.5z" />
    <glyph glyph-name="Amacron" unicode="&#x100;" horiz-adv-x="630" 
d="M25 0l265 760h50l265 -760h-77l-69 210h-288l-69 -210h-77zM190 269h249l-124 377zM178 880h274v-60h-274v60z" />
    <glyph glyph-name="amacron" unicode="&#x101;" horiz-adv-x="495" 
d="M360 343q0 27 -5.5 47t-19 33t-36.5 19t-58 6q-51 0 -86 -7.5t-64 -17.5v60q33 14 73.5 20.5t76.5 6.5q56 0 92.5 -12t58 -34.5t30 -53.5t8.5 -68v-342h-39l-15 40q-34 -25 -73.5 -37.5t-77.5 -12.5q-49 0 -82.5 13.5t-54 35.5t-29.5 51t-9 61t9.5 59t30.5 47.5t55 33.5
t83 16l132 8v28zM223 253q-54 -5 -78 -31.5t-24 -70.5q0 -17 3 -34.5t14 -32t32 -23.5t57 -9q41 0 71 10.5t62 29.5v174zM105 680h274v-60h-274v60z" />
    <glyph glyph-name="Abreve" unicode="&#x102;" horiz-adv-x="630" 
d="M25 0l265 760h50l265 -760h-77l-69 210h-288l-69 -210h-77zM190 269h249l-124 377zM315 790q-141 0 -145 110h51q2 -31 26.5 -43t67.5 -12t67.5 12t26.5 43h51q-4 -110 -145 -110z" />
    <glyph glyph-name="abreve" unicode="&#x103;" horiz-adv-x="495" 
d="M360 343q0 27 -5.5 47t-19 33t-36.5 19t-58 6q-51 0 -86 -7.5t-64 -17.5v60q33 14 73.5 20.5t76.5 6.5q56 0 92.5 -12t58 -34.5t30 -53.5t8.5 -68v-342h-39l-15 40q-34 -25 -73.5 -37.5t-77.5 -12.5q-49 0 -82.5 13.5t-54 35.5t-29.5 51t-9 61t9.5 59t30.5 47.5t55 33.5
t83 16l132 8v28zM223 253q-54 -5 -78 -31.5t-24 -70.5q0 -17 3 -34.5t14 -32t32 -23.5t57 -9q41 0 71 10.5t62 29.5v174zM242 550q-171 0 -175 200h51q1 -34 6.5 -60t19.5 -44t38 -27t60 -9t60 9t38 27t19.5 44t6.5 60h51q-4 -200 -175 -200z" />
    <glyph glyph-name="Aogonek" unicode="&#x104;" horiz-adv-x="630" 
d="M25 0l265 760h50l265 -760q-49 -27 -77.5 -65t-28.5 -77q0 -23 12.5 -40t41.5 -17q17 0 31.5 2.5t25.5 5.5v-48q-13 -5 -31 -8t-40 -3q-45 0 -73 25t-28 70t22.5 85t66.5 71l-68 209h-288l-69 -210h-77zM190 269h249l-124 377z" />
    <glyph glyph-name="aogonek" unicode="&#x105;" horiz-adv-x="495" 
d="M360 343q0 27 -5.5 47t-19 33t-36.5 19t-58 6q-51 0 -86 -7.5t-64 -17.5v60q33 14 73.5 20.5t76.5 6.5q56 0 92.5 -12t58 -34.5t30 -53.5t8.5 -68v-342q-49 -27 -77.5 -65t-28.5 -77q0 -23 12.5 -40t41.5 -17q17 0 31.5 2.5t25.5 5.5v-48q-13 -5 -31 -8t-40 -3
q-45 0 -73 25t-28 70q0 51 30.5 97.5t89.5 78.5l-7 19q-34 -25 -73.5 -37.5t-77.5 -12.5q-49 0 -82.5 13.5t-54 35.5t-29.5 51t-9 61t9.5 59t30.5 47.5t55 33.5t83 16l132 8v28zM223 253q-54 -5 -78 -31.5t-24 -70.5q0 -17 3 -34.5t14 -32t32 -23.5t57 -9q41 0 71 10.5
t62 29.5v174z" />
    <glyph glyph-name="Cacute" unicode="&#x106;" horiz-adv-x="610" 
d="M60 375q0 80 14.5 150t49 122.5t91 82.5t140.5 30q69 0 116.5 -10.5t78.5 -24.5v-67q-26 10 -49 17.5t-46 12.5t-47.5 7t-52.5 2q-62 0 -104.5 -25t-68.5 -68.5t-38 -102t-12 -126.5t12 -126.5t38 -102t68.5 -68.5t104.5 -25q28 0 52.5 2t47.5 7t46 12t49 18v-67
q-31 -14 -78.5 -24.5t-116.5 -10.5q-84 0 -140.5 30t-91 82.5t-49 122.5t-14.5 150zM330 800l50 100h90l-90 -100h-50z" />
    <glyph glyph-name="cacute" unicode="&#x107;" horiz-adv-x="460" 
d="M55 250q0 54 9 101.5t33 82.5t65 55.5t104 20.5q37 0 76.5 -5.5t72.5 -19.5v-60q-29 10 -63 16.5t-87 6.5q-47 0 -75 -17t-42.5 -45t-18.5 -63.5t-4 -72.5t4 -72.5t18.5 -63.5t42.5 -45t75 -17q53 0 87 6.5t63 16.5v-60q-33 -14 -72.5 -19.5t-76.5 -5.5q-63 0 -104 20.5
t-65 55.5t-33 82.5t-9 101.5zM242 550l50 200h80l-80 -200h-50z" />
    <glyph glyph-name="Ccircumflex" unicode="&#x108;" horiz-adv-x="610" 
d="M60 375q0 80 14.5 150t49 122.5t91 82.5t140.5 30q69 0 116.5 -10.5t78.5 -24.5v-67q-26 10 -49 17.5t-46 12.5t-47.5 7t-52.5 2q-62 0 -104.5 -25t-68.5 -68.5t-38 -102t-12 -126.5t12 -126.5t38 -102t68.5 -68.5t104.5 -25q28 0 52.5 2t47.5 7t46 12t49 18v-67
q-31 -14 -78.5 -24.5t-116.5 -10.5q-84 0 -140.5 30t-91 82.5t-49 122.5t-14.5 150zM454 800l-99 56l-99 -56h-56l115 100h80l115 -100h-56z" />
    <glyph glyph-name="ccircumflex" unicode="&#x109;" horiz-adv-x="460" 
d="M55 250q0 54 9 101.5t33 82.5t65 55.5t104 20.5q37 0 76.5 -5.5t72.5 -19.5v-60q-29 10 -63 16.5t-87 6.5q-47 0 -75 -17t-42.5 -45t-18.5 -63.5t-4 -72.5t4 -72.5t18.5 -63.5t42.5 -45t75 -17q53 0 87 6.5t63 16.5v-60q-33 -14 -72.5 -19.5t-76.5 -5.5q-63 0 -104 20.5
t-65 55.5t-33 82.5t-9 101.5zM397 550l-130 141l-130 -141h-55l145 200h80l145 -200h-55z" />
    <glyph glyph-name="Cdotaccent" unicode="&#x10a;" horiz-adv-x="610" 
d="M60 375q0 80 14.5 150t49 122.5t91 82.5t140.5 30q69 0 116.5 -10.5t78.5 -24.5v-67q-26 10 -49 17.5t-46 12.5t-47.5 7t-52.5 2q-62 0 -104.5 -25t-68.5 -68.5t-38 -102t-12 -126.5t12 -126.5t38 -102t68.5 -68.5t104.5 -25q28 0 52.5 2t47.5 7t46 12t49 18v-67
q-31 -14 -78.5 -24.5t-116.5 -10.5q-84 0 -140.5 30t-91 82.5t-49 122.5t-14.5 150zM305 850q0 21 14.5 35.5t35.5 14.5t35.5 -14.5t14.5 -35.5t-14.5 -35.5t-35.5 -14.5t-35.5 14.5t-14.5 35.5z" />
    <glyph glyph-name="cdotaccent" unicode="&#x10b;" horiz-adv-x="460" 
d="M55 250q0 54 9 101.5t33 82.5t65 55.5t104 20.5q37 0 76.5 -5.5t72.5 -19.5v-60q-29 10 -63 16.5t-87 6.5q-47 0 -75 -17t-42.5 -45t-18.5 -63.5t-4 -72.5t4 -72.5t18.5 -63.5t42.5 -45t75 -17q53 0 87 6.5t63 16.5v-60q-33 -14 -72.5 -19.5t-76.5 -5.5q-63 0 -104 20.5
t-65 55.5t-33 82.5t-9 101.5zM217 650q0 21 14.5 35.5t35.5 14.5t35.5 -14.5t14.5 -35.5t-14.5 -35.5t-35.5 -14.5t-35.5 14.5t-14.5 35.5z" />
    <glyph glyph-name="Ccaron" unicode="&#x10c;" horiz-adv-x="610" 
d="M60 375q0 80 14.5 150t49 122.5t91 82.5t140.5 30q69 0 116.5 -10.5t78.5 -24.5v-67q-26 10 -49 17.5t-46 12.5t-47.5 7t-52.5 2q-62 0 -104.5 -25t-68.5 -68.5t-38 -102t-12 -126.5t12 -126.5t38 -102t68.5 -68.5t104.5 -25q28 0 52.5 2t47.5 7t46 12t49 18v-67
q-31 -14 -78.5 -24.5t-116.5 -10.5q-84 0 -140.5 30t-91 82.5t-49 122.5t-14.5 150zM256 900l99 -56l99 56h56l-115 -100h-80l-115 100h56z" />
    <glyph glyph-name="ccaron" unicode="&#x10d;" horiz-adv-x="460" 
d="M55 250q0 54 9 101.5t33 82.5t65 55.5t104 20.5q37 0 76.5 -5.5t72.5 -19.5v-60q-29 10 -63 16.5t-87 6.5q-47 0 -75 -17t-42.5 -45t-18.5 -63.5t-4 -72.5t4 -72.5t18.5 -63.5t42.5 -45t75 -17q53 0 87 6.5t63 16.5v-60q-33 -14 -72.5 -19.5t-76.5 -5.5q-63 0 -104 20.5
t-65 55.5t-33 82.5t-9 101.5zM452 750l-145 -200h-80l-145 200h55l130 -141l130 141h55z" />
    <glyph glyph-name="Dcaron" unicode="&#x10e;" horiz-adv-x="655" 
d="M75 0v750h204q92 0 153 -28.5t97 -79t51 -119t15 -148.5t-15 -148.5t-51 -119t-97 -79t-153 -28.5h-204zM143 63h140q67 0 113 23.5t74.5 65t40.5 98.5t12 125q0 67 -12 124.5t-40.5 99t-74.5 65t-113 23.5h-140v-624zM201 900l99 -56l99 56h56l-115 -100h-80l-115 100
h56z" />
    <glyph glyph-name="dcaron" unicode="&#x10f;" horiz-adv-x="555" 
d="M260 510q35 0 71.5 -10t68.5 -31v281h70v-750h-39l-15 41q-39 -25 -77 -38t-79 -13q-60 0 -100 20.5t-63 55.5t-32.5 82.5t-9.5 101.5t9.5 101.5t32.5 82.5t63 55.5t100 20.5zM260 448q-45 0 -71.5 -17t-41 -45t-18.5 -63.5t-4 -72.5t4 -72.5t18.5 -63.5t41 -45t71.5 -17
q49 0 80 8t60 24v332q-29 16 -60 24t-80 8zM614 750l-48 -200h-46l16 200h78z" />
    <glyph glyph-name="Dcroat" unicode="&#x110;" horiz-adv-x="685" 
d="M15 415h90v335h204q92 0 153 -28.5t97 -79t51 -119t15 -148.5t-15 -148.5t-51 -119t-97 -79t-153 -28.5h-204v362h-90v53zM173 415h183v-53h-183v-299h140q67 0 113 23.5t74.5 65t40.5 98.5t12 125q0 67 -12 124.5t-40.5 99t-74.5 65t-113 23.5h-140v-272z" />
    <glyph glyph-name="dcroat" unicode="&#x111;" horiz-adv-x="535" 
d="M260 510q69 0 140 -41v134h-135v51h135v96h70v-96h90v-51h-90v-603h-39l-15 41q-39 -25 -77 -38t-79 -13q-60 0 -100 20.5t-63 55.5t-32.5 82.5t-9.5 101.5t9.5 101.5t32.5 82.5t63 55.5t100 20.5zM260 52q49 0 80 8t60 24v332q-29 16 -60 24t-80 8q-45 0 -71.5 -17
t-41 -45t-18.5 -63.5t-4 -72.5t4 -72.5t18.5 -63.5t41 -45t71.5 -17z" />
    <glyph glyph-name="Emacron" unicode="&#x112;" 
d="M475 359h-332v-296h367v-63h-435v750h435v-63h-367v-265h332v-63zM163 880h274v-60h-274v60z" />
    <glyph glyph-name="emacron" unicode="&#x113;" horiz-adv-x="510" 
d="M55 250q0 54 9 101.5t32.5 82.5t64.5 55.5t104 20.5q64 0 101.5 -20.5t57 -55.5t25.5 -82.5t6 -101.5v-32h-330q1 -33 7.5 -63t21.5 -53t42 -36.5t69 -13.5q54 0 91 6t74 22v-60q-42 -19 -85 -24.5t-80 -5.5q-63 0 -104 20.5t-64.5 55.5t-32.5 82.5t-9 101.5zM265 448
q-44 0 -70.5 -14.5t-41.5 -38.5t-21 -55t-7 -65h260q0 33 -2.5 64.5t-14.5 55.5t-36 38.5t-67 14.5zM129 680h274v-60h-274v60z" />
    <glyph glyph-name="Ebreve" unicode="&#x114;" 
d="M475 359h-332v-296h367v-63h-435v750h435v-63h-367v-265h332v-63zM300 790q-141 0 -145 110h51q2 -31 26.5 -43t67.5 -12t67.5 12t26.5 43h51q-4 -110 -145 -110z" />
    <glyph glyph-name="ebreve" unicode="&#x115;" horiz-adv-x="510" 
d="M55 250q0 54 9 101.5t32.5 82.5t64.5 55.5t104 20.5q64 0 101.5 -20.5t57 -55.5t25.5 -82.5t6 -101.5v-32h-330q1 -33 7.5 -63t21.5 -53t42 -36.5t69 -13.5q54 0 91 6t74 22v-60q-42 -19 -85 -24.5t-80 -5.5q-63 0 -104 20.5t-64.5 55.5t-32.5 82.5t-9 101.5zM265 448
q-44 0 -70.5 -14.5t-41.5 -38.5t-21 -55t-7 -65h260q0 33 -2.5 64.5t-14.5 55.5t-36 38.5t-67 14.5zM266 550q-171 0 -175 200h51q1 -34 6.5 -60t19.5 -44t38 -27t60 -9t60 9t38 27t19.5 44t6.5 60h51q-4 -200 -175 -200z" />
    <glyph glyph-name="Edotaccent" unicode="&#x116;" 
d="M475 359h-332v-296h367v-63h-435v750h435v-63h-367v-265h332v-63zM250 850q0 21 14.5 35.5t35.5 14.5t35.5 -14.5t14.5 -35.5t-14.5 -35.5t-35.5 -14.5t-35.5 14.5t-14.5 35.5z" />
    <glyph glyph-name="edotaccent" unicode="&#x117;" horiz-adv-x="510" 
d="M55 250q0 54 9 101.5t32.5 82.5t64.5 55.5t104 20.5q64 0 101.5 -20.5t57 -55.5t25.5 -82.5t6 -101.5v-32h-330q1 -33 7.5 -63t21.5 -53t42 -36.5t69 -13.5q54 0 91 6t74 22v-60q-42 -19 -85 -24.5t-80 -5.5q-63 0 -104 20.5t-64.5 55.5t-32.5 82.5t-9 101.5zM265 448
q-44 0 -70.5 -14.5t-41.5 -38.5t-21 -55t-7 -65h260q0 33 -2.5 64.5t-14.5 55.5t-36 38.5t-67 14.5zM216 650q0 21 14.5 35.5t35.5 14.5t35.5 -14.5t14.5 -35.5t-14.5 -35.5t-35.5 -14.5t-35.5 14.5t-14.5 35.5z" />
    <glyph glyph-name="Eogonek" unicode="&#x118;" 
d="M475 359h-332v-296h367v-63q-49 -27 -77.5 -65t-28.5 -77q0 -23 12.5 -40t41.5 -17q17 0 31.5 2.5t25.5 5.5v-48q-13 -5 -31 -8t-40 -3q-45 0 -73 25t-28 70q0 44 22 83.5t65 71.5h-355v750h435v-63h-367v-265h332v-63z" />
    <glyph glyph-name="eogonek" unicode="&#x119;" horiz-adv-x="510" 
d="M55 250q0 54 9 101.5t32.5 82.5t64.5 55.5t104 20.5q64 0 101.5 -20.5t57 -55.5t25.5 -82.5t6 -101.5v-32h-330q1 -33 7.5 -63t21.5 -53t42 -36.5t69 -13.5q54 0 91 6t74 22v-60q-16 -7 -31 -12t-31 -8q-49 -27 -77.5 -65t-28.5 -77q0 -23 12.5 -40t41.5 -17
q17 0 31.5 2.5t25.5 5.5v-48q-13 -5 -31 -8t-40 -3q-45 0 -73 25t-28 70q0 40 19 77.5t56 67.5h-11q-63 0 -104 20.5t-64.5 55.5t-32.5 82.5t-9 101.5zM265 448q-44 0 -70.5 -14.5t-41.5 -38.5t-21 -55t-7 -65h260q0 33 -2.5 64.5t-14.5 55.5t-36 38.5t-67 14.5z" />
    <glyph glyph-name="Ecaron" unicode="&#x11a;" 
d="M475 359h-332v-296h367v-63h-435v750h435v-63h-367v-265h332v-63zM201 900l99 -56l99 56h56l-115 -100h-80l-115 100h56z" />
    <glyph glyph-name="ecaron" unicode="&#x11b;" horiz-adv-x="510" 
d="M55 250q0 54 9 101.5t32.5 82.5t64.5 55.5t104 20.5q64 0 101.5 -20.5t57 -55.5t25.5 -82.5t6 -101.5v-32h-330q1 -33 7.5 -63t21.5 -53t42 -36.5t69 -13.5q54 0 91 6t74 22v-60q-42 -19 -85 -24.5t-80 -5.5q-63 0 -104 20.5t-64.5 55.5t-32.5 82.5t-9 101.5zM265 448
q-44 0 -70.5 -14.5t-41.5 -38.5t-21 -55t-7 -65h260q0 33 -2.5 64.5t-14.5 55.5t-36 38.5t-67 14.5zM451 750l-145 -200h-80l-145 200h55l130 -141l130 141h55z" />
    <glyph glyph-name="Gcircumflex" unicode="&#x11c;" horiz-adv-x="660" 
d="M355 -10q-84 0 -140.5 30t-91 82.5t-49 122.5t-14.5 150t14.5 150t49 122.5t91 82.5t140.5 30q78 0 128.5 -13t81.5 -29v-68q-29 12 -54 21t-49.5 14.5t-50.5 8.5t-56 3q-62 0 -104.5 -25t-68.5 -68.5t-38 -102t-12 -126.5t12 -126.5t38 -102t68.5 -68.5t104.5 -25
q21 0 44 1t45 3.5t41 7t32 10.5v256h-157v63h225v-363q-38 -18 -94.5 -29.5t-135.5 -11.5zM454 800l-99 56l-99 -56h-56l115 100h80l115 -100h-56z" />
    <glyph glyph-name="gcircumflex" unicode="&#x11d;" horiz-adv-x="510" 
d="M242 134q-38 0 -66 6q-8 -8 -13.5 -18t-5.5 -19q0 -35 38 -39l170 -20q71 -8 104 -38t33 -96q0 -46 -21 -78t-57 -52.5t-83 -30t-99 -9.5q-53 0 -94.5 8t-70 26t-44 47t-15.5 70q0 51 30.5 84.5t72.5 47.5v1q-14 10 -23 25.5t-9 40.5q0 21 11 38t27 30q-45 25 -62.5 68
t-17.5 96q0 39 9 73t31.5 59.5t60 40.5t94.5 15q23 0 43 -2.5t37 -7.5h170v-38l-84 -24q16 -24 22.5 -53.5t6.5 -62.5q0 -39 -9 -73t-31.5 -59.5t-60 -40.5t-94.5 -15zM205 5q-25 -6 -47 -14.5t-38.5 -22t-26.5 -31.5t-10 -42q0 -56 41 -75.5t118 -19.5q37 0 72 5t62 18
t43.5 34t16.5 53q0 38 -19.5 55.5t-65.5 22.5zM242 195q44 0 69.5 10.5t39 28t17.5 40.5t4 48t-4 48t-17.5 40.5t-39 28t-69.5 10.5t-69.5 -10.5t-39 -28t-17.5 -40.5t-4 -48t4 -48t17.5 -40.5t39 -28t69.5 -10.5zM373 550l-130 141l-130 -141h-55l145 200h80l145 -200h-55z
" />
    <glyph glyph-name="Gbreve" unicode="&#x11e;" horiz-adv-x="660" 
d="M355 -10q-84 0 -140.5 30t-91 82.5t-49 122.5t-14.5 150t14.5 150t49 122.5t91 82.5t140.5 30q78 0 128.5 -13t81.5 -29v-68q-29 12 -54 21t-49.5 14.5t-50.5 8.5t-56 3q-62 0 -104.5 -25t-68.5 -68.5t-38 -102t-12 -126.5t12 -126.5t38 -102t68.5 -68.5t104.5 -25
q21 0 44 1t45 3.5t41 7t32 10.5v256h-157v63h225v-363q-38 -18 -94.5 -29.5t-135.5 -11.5zM355 790q-141 0 -145 110h51q2 -31 26.5 -43t67.5 -12t67.5 12t26.5 43h51q-4 -110 -145 -110z" />
    <glyph glyph-name="gbreve" unicode="&#x11f;" horiz-adv-x="510" 
d="M242 134q-38 0 -66 6q-8 -8 -13.5 -18t-5.5 -19q0 -35 38 -39l170 -20q71 -8 104 -38t33 -96q0 -46 -21 -78t-57 -52.5t-83 -30t-99 -9.5q-53 0 -94.5 8t-70 26t-44 47t-15.5 70q0 51 30.5 84.5t72.5 47.5v1q-14 10 -23 25.5t-9 40.5q0 21 11 38t27 30q-45 25 -62.5 68
t-17.5 96q0 39 9 73t31.5 59.5t60 40.5t94.5 15q23 0 43 -2.5t37 -7.5h170v-38l-84 -24q16 -24 22.5 -53.5t6.5 -62.5q0 -39 -9 -73t-31.5 -59.5t-60 -40.5t-94.5 -15zM205 5q-25 -6 -47 -14.5t-38.5 -22t-26.5 -31.5t-10 -42q0 -56 41 -75.5t118 -19.5q37 0 72 5t62 18
t43.5 34t16.5 53q0 38 -19.5 55.5t-65.5 22.5zM242 195q44 0 69.5 10.5t39 28t17.5 40.5t4 48t-4 48t-17.5 40.5t-39 28t-69.5 10.5t-69.5 -10.5t-39 -28t-17.5 -40.5t-4 -48t4 -48t17.5 -40.5t39 -28t69.5 -10.5zM243 550q-171 0 -175 200h51q1 -34 6.5 -60t19.5 -44
t38 -27t60 -9t60 9t38 27t19.5 44t6.5 60h51q-4 -200 -175 -200z" />
    <glyph glyph-name="Gdotaccent" unicode="&#x120;" horiz-adv-x="660" 
d="M355 -10q-84 0 -140.5 30t-91 82.5t-49 122.5t-14.5 150t14.5 150t49 122.5t91 82.5t140.5 30q78 0 128.5 -13t81.5 -29v-68q-29 12 -54 21t-49.5 14.5t-50.5 8.5t-56 3q-62 0 -104.5 -25t-68.5 -68.5t-38 -102t-12 -126.5t12 -126.5t38 -102t68.5 -68.5t104.5 -25
q21 0 44 1t45 3.5t41 7t32 10.5v256h-157v63h225v-363q-38 -18 -94.5 -29.5t-135.5 -11.5zM305 850q0 21 14.5 35.5t35.5 14.5t35.5 -14.5t14.5 -35.5t-14.5 -35.5t-35.5 -14.5t-35.5 14.5t-14.5 35.5z" />
    <glyph glyph-name="gdotaccent" unicode="&#x121;" horiz-adv-x="510" 
d="M242 134q-38 0 -66 6q-8 -8 -13.5 -18t-5.5 -19q0 -35 38 -39l170 -20q71 -8 104 -38t33 -96q0 -46 -21 -78t-57 -52.5t-83 -30t-99 -9.5q-53 0 -94.5 8t-70 26t-44 47t-15.5 70q0 51 30.5 84.5t72.5 47.5v1q-14 10 -23 25.5t-9 40.5q0 21 11 38t27 30q-45 25 -62.5 68
t-17.5 96q0 39 9 73t31.5 59.5t60 40.5t94.5 15q23 0 43 -2.5t37 -7.5h170v-38l-84 -24q16 -24 22.5 -53.5t6.5 -62.5q0 -39 -9 -73t-31.5 -59.5t-60 -40.5t-94.5 -15zM205 5q-25 -6 -47 -14.5t-38.5 -22t-26.5 -31.5t-10 -42q0 -56 41 -75.5t118 -19.5q37 0 72 5t62 18
t43.5 34t16.5 53q0 38 -19.5 55.5t-65.5 22.5zM242 195q44 0 69.5 10.5t39 28t17.5 40.5t4 48t-4 48t-17.5 40.5t-39 28t-69.5 10.5t-69.5 -10.5t-39 -28t-17.5 -40.5t-4 -48t4 -48t17.5 -40.5t39 -28t69.5 -10.5zM193 650q0 21 14.5 35.5t35.5 14.5t35.5 -14.5t14.5 -35.5
t-14.5 -35.5t-35.5 -14.5t-35.5 14.5t-14.5 35.5z" />
    <glyph glyph-name="Gcommaaccent" unicode="&#x122;" horiz-adv-x="660" 
d="M355 -10q-84 0 -140.5 30t-91 82.5t-49 122.5t-14.5 150t14.5 150t49 122.5t91 82.5t140.5 30q78 0 128.5 -13t81.5 -29v-68q-29 12 -54 21t-49.5 14.5t-50.5 8.5t-56 3q-62 0 -104.5 -25t-68.5 -68.5t-38 -102t-12 -126.5t12 -126.5t38 -102t68.5 -68.5t104.5 -25
q21 0 44 1t45 3.5t41 7t32 10.5v256h-157v63h225v-363q-38 -18 -94.5 -29.5t-135.5 -11.5zM408 -50l-68 -200h-50l26 200h92z" />
    <glyph glyph-name="gcommaaccent" unicode="&#x123;" horiz-adv-x="510" 
d="M242 134q-38 0 -66 6q-8 -8 -13.5 -18t-5.5 -19q0 -35 38 -39l170 -20q71 -8 104 -38t33 -96q0 -46 -21 -78t-57 -52.5t-83 -30t-99 -9.5q-53 0 -94.5 8t-70 26t-44 47t-15.5 70q0 51 30.5 84.5t72.5 47.5v1q-14 10 -23 25.5t-9 40.5q0 21 11 38t27 30q-45 25 -62.5 68
t-17.5 96q0 39 9 73t31.5 59.5t60 40.5t94.5 15q23 0 43 -2.5t37 -7.5h170v-38l-84 -24q16 -24 22.5 -53.5t6.5 -62.5q0 -39 -9 -73t-31.5 -59.5t-60 -40.5t-94.5 -15zM205 5q-25 -6 -47 -14.5t-38.5 -22t-26.5 -31.5t-10 -42q0 -56 41 -75.5t118 -19.5q37 0 72 5t62 18
t43.5 34t16.5 53q0 38 -19.5 55.5t-65.5 22.5zM242 195q44 0 69.5 10.5t39 28t17.5 40.5t4 48t-4 48t-17.5 40.5t-39 28t-69.5 10.5t-69.5 -10.5t-39 -28t-17.5 -40.5t-4 -48t4 -48t17.5 -40.5t39 -28t69.5 -10.5zM201 550l56 200h50l-26 -200h-80z" />
    <glyph glyph-name="Hcircumflex" unicode="&#x124;" horiz-adv-x="660" 
d="M517 0v359h-374v-359h-68v750h68v-328h374v328h68v-750h-68zM429 800l-99 56l-99 -56h-56l115 100h80l115 -100h-56z" />
    <glyph glyph-name="hcircumflex" unicode="&#x125;" horiz-adv-x="500" 
d="M370 363q0 49 -26.5 67t-73.5 18q-49 0 -79 -8t-58 -24v-416h-68v750h68v-281q32 21 67 31t70 10q90 0 130 -39t40 -111v-360h-70v363v0zM199 800l-99 56l-99 -56h-56l115 100h80l115 -100h-56z" />
    <glyph glyph-name="Hbar" unicode="&#x126;" horiz-adv-x="660" 
d="M517 0v359h-374v-359h-68v750h68v-144h374v144h68v-750h-68zM517 422v121h-374v-121h374z" />
    <glyph glyph-name="hbar" unicode="&#x127;" horiz-adv-x="500" 
d="M65 654v96h68v-96h137v-51h-137v-134q32 21 67 31t70 10q90 0 130 -39t40 -111v-360h-70v363q0 49 -26.5 67t-73.5 18q-49 0 -79 -8t-58 -24v-416h-68v603h-90v51h90z" />
    <glyph glyph-name="Itilde" unicode="&#x128;" horiz-adv-x="260" 
d="M95 0v750h70v-750h-70zM211 849q17 0 26.5 5t14.5 13t6.5 16.5t1.5 16.5h56q4 -53 -25.5 -81.5t-83.5 -28.5q-27 0 -46.5 9.5t-36 21t-31.5 21t-34 9.5q-17 0 -26.5 -5t-14.5 -13t-6.5 -17t-1.5 -16h-56q-4 53 25.5 81.5t83.5 28.5q27 0 46.5 -9.5t36 -21t31.5 -21
t34 -9.5z" />
    <glyph glyph-name="itilde" unicode="&#x129;" horiz-adv-x="240" 
d="M191 -10q-54 0 -82 25t-28 85v400h68v-408q0 -26 9.5 -35.5t32.5 -9.5v-57v0zM192 644q17 0 26.5 5t14.5 13t6.5 16.5t1.5 16.5h56q4 -53 -25.5 -81.5t-83.5 -28.5q-31 0 -50 11t-34 24.5t-29 24.5t-35 11q-17 0 -26.5 -5t-14.5 -13t-6.5 -17t-1.5 -16h-56
q-4 53 25.5 81.5t83.5 28.5q31 0 50 -11t34 -24.5t29 -24.5t35 -11z" />
    <glyph glyph-name="Imacron" unicode="&#x12a;" horiz-adv-x="260" 
d="M95 0v750h70v-750h-70zM-6 880h274v-60h-274v60z" />
    <glyph glyph-name="imacron" unicode="&#x12b;" horiz-adv-x="240" 
d="M191 -10q-54 0 -82 25t-28 85v400h68v-408q0 -26 9.5 -35.5t32.5 -9.5v-57v0zM-21 680h274v-60h-274v60z" />
    <glyph glyph-name="Ibreve" unicode="&#x12c;" horiz-adv-x="260" 
d="M95 0v750h70v-750h-70zM131 790q-141 0 -145 110h51q2 -31 26.5 -43t67.5 -12t67.5 12t26.5 43h51q-4 -110 -145 -110z" />
    <glyph glyph-name="ibreve" unicode="&#x12d;" horiz-adv-x="240" 
d="M191 -10q-54 0 -82 25t-28 85v400h68v-408q0 -26 9.5 -35.5t32.5 -9.5v-57v0zM116 550q-171 0 -175 200h51q1 -34 6.5 -60t19.5 -44t38 -27t60 -9t60 9t38 27t19.5 44t6.5 60h51q-4 -200 -175 -200z" />
    <glyph glyph-name="Iogonek" unicode="&#x12e;" horiz-adv-x="260" 
d="M165 0q-49 -35 -67.5 -69t-18.5 -73q0 -23 12.5 -40t41.5 -17q17 0 31.5 2.5t25.5 5.5v-48q-13 -5 -31 -8t-40 -3q-45 0 -73 25t-28 70t17 84t60 72v749h70v-750v0z" />
    <glyph glyph-name="iogonek" unicode="&#x12f;" horiz-adv-x="240" 
d="M191 -10q-18 -10 -35.5 -24.5t-30.5 -32t-21 -37t-8 -38.5q0 -23 12.5 -40t41.5 -17q17 0 31.5 2.5t25.5 5.5v-48q-13 -5 -31 -8t-40 -3q-45 0 -73 25t-28 70t24.5 85t69.5 71q-48 22 -48 99v400h68v-408q0 -26 9.5 -35.5t32.5 -9.5v-57zM65 650q0 21 14.5 35.5
t35.5 14.5t35.5 -14.5t14.5 -35.5t-14.5 -35.5t-35.5 -14.5t-35.5 14.5t-14.5 35.5z" />
    <glyph glyph-name="Idotaccent" unicode="&#x130;" horiz-adv-x="260" 
d="M95 0v750h70v-750h-70zM81 850q0 21 14.5 35.5t35.5 14.5t35.5 -14.5t14.5 -35.5t-14.5 -35.5t-35.5 -14.5t-35.5 14.5t-14.5 35.5z" />
    <glyph glyph-name="dotlessi" unicode="&#x131;" horiz-adv-x="240" 
d="M191 -10q-54 0 -82 25t-28 85v400h68v-408q0 -26 9.5 -35.5t32.5 -9.5v-57v0z" />
    <glyph glyph-name="IJ" unicode="&#x132;" horiz-adv-x="639" 
d="M95 0v750h70v-750h-70zM296 61q18 -5 32.5 -6.5t37.5 -1.5q49 0 79 18t30 67v612h70v-610q0 -72 -42.5 -111t-136.5 -39q-16 0 -35.5 1.5t-34.5 5.5v64z" />
    <glyph glyph-name="ij" unicode="&#x133;" horiz-adv-x="420" 
d="M191 -10q-54 0 -82 25t-28 85v400h68v-408q0 -26 9.5 -35.5t32.5 -9.5v-57zM65 650q0 21 14.5 35.5t35.5 14.5t35.5 -14.5t14.5 -35.5t-14.5 -35.5t-35.5 -14.5t-35.5 14.5t-14.5 35.5zM142 -201q22 3 45 10.5t41.5 21t30 33.5t11.5 49v587h68v-596q0 -39 -18 -69
t-46 -50.5t-63 -31.5t-69 -13v59zM254 650q0 21 14.5 35.5t35.5 14.5t35.5 -14.5t14.5 -35.5t-14.5 -35.5t-35.5 -14.5t-35.5 14.5t-14.5 35.5z" />
    <glyph glyph-name="Jcircumflex" unicode="&#x134;" horiz-adv-x="379" 
d="M35 61q18 -5 32.5 -6.5t37.5 -1.5q49 0 79 18t30 67v612h70v-610q0 -72 -42.5 -111t-136.5 -39q-16 0 -35.5 1.5t-34.5 5.5v64zM349 800l-99 56l-99 -56h-56l115 100h80l115 -100h-56z" />
    <glyph glyph-name="jcircumflex" unicode="&#x135;" horiz-adv-x="230" 
d="M-47 -201q22 3 45 10.5t41.5 21t30 33.5t11.5 49v587h68v-596q0 -39 -18 -69t-46 -50.5t-63 -31.5t-69 -13v59zM246 550l-130 141l-130 -141h-55l145 200h80l145 -200h-55z" />
    <glyph glyph-name="Kcommaaccent" unicode="&#x136;" horiz-adv-x="595" 
d="M208 363l-65 -75v-288h-68v750h68v-374l313 374h88l-292 -336l322 -414h-89zM353 -50l-68 -200h-50l26 200h92z" />
    <glyph glyph-name="kcommaaccent" unicode="&#x137;" horiz-adv-x="500" 
d="M238 294l242 -294h-87l-197 254l-63 -60v-194h-68v750h68v-474l226 224h94zM304 -50l-56 -200h-50l26 200h80z" />
    <glyph glyph-name="kgreenlandic" unicode="&#x138;" horiz-adv-x="500" 
d="M238 294l242 -294h-87l-197 254l-63 -60v-194h-68v500h68v-224l226 224h94z" />
    <glyph glyph-name="Lacute" unicode="&#x139;" horiz-adv-x="530" 
d="M143 63h347v-63h-415v750h68v-687zM85 800l50 100h90l-90 -100h-50z" />
    <glyph glyph-name="lacute" unicode="&#x13a;" horiz-adv-x="240" 
d="M191 -10q-54 0 -82 25t-28 85v650h68v-658q0 -26 9.5 -35.5t32.5 -9.5v-57v0zM91 800l50 200h80l-80 -200h-50z" />
    <glyph glyph-name="Lcommaaccent" unicode="&#x13b;" horiz-adv-x="530" 
d="M143 63h347v-63h-415v750h68v-687zM339 -50l-68 -200h-50l26 200h92z" />
    <glyph glyph-name="lcommaaccent" unicode="&#x13c;" horiz-adv-x="240" 
d="M191 -10q-54 0 -82 25t-28 85v650h68v-658q0 -26 9.5 -35.5t32.5 -9.5v-57v0zM184 -50l-56 -200h-50l26 200h80z" />
    <glyph glyph-name="Lcaron" unicode="&#x13d;" horiz-adv-x="530" 
d="M143 63h347v-63h-415v750h68v-687zM318 750l-48 -200h-46l16 200h78z" />
    <glyph glyph-name="lcaron" unicode="&#x13e;" horiz-adv-x="260" 
d="M191 -10q-54 0 -82 25t-28 85v650h68v-658q0 -26 9.5 -35.5t32.5 -9.5v-57v0zM294 750l-48 -200h-46l16 200h78z" />
    <glyph glyph-name="Ldot" unicode="&#x13f;" horiz-adv-x="530" 
d="M143 63h347v-63h-415v750h68v-687zM324 376q0 21 14.5 35.5t35.5 14.5t35.5 -14.5t14.5 -35.5t-14.5 -35.5t-35.5 -14.5t-35.5 14.5t-14.5 35.5zM143 63h347v-63h-415v750h68v-687zM324 376q0 21 14.5 35.5t35.5 14.5t35.5 -14.5t14.5 -35.5t-14.5 -35.5t-35.5 -14.5
t-35.5 14.5t-14.5 35.5z" />
    <glyph glyph-name="ldot" unicode="&#x140;" horiz-adv-x="360" 
d="M191 -10q-54 0 -82 25t-28 85v650h68v-658q0 -26 9.5 -35.5t32.5 -9.5v-57v0zM250 301q0 21 14.5 35.5t35.5 14.5t35.5 -14.5t14.5 -35.5t-14.5 -35.5t-35.5 -14.5t-35.5 14.5t-14.5 35.5z" />
    <glyph glyph-name="Lslash" unicode="&#x141;" horiz-adv-x="560" 
d="M171 383l209 127v-61l-209 -127v-259h347v-63h-415v280l-98 -59v61l98 59v409h68v-367z" />
    <glyph glyph-name="lslash" unicode="&#x142;" horiz-adv-x="290" 
d="M25 352l76 48v350h68v-306l105 66v-64l-105 -66v-288q0 -26 9.5 -35.5t32.5 -9.5v-57q-54 0 -82 25t-28 85v236l-76 -48v64z" />
    <glyph glyph-name="Nacute" unicode="&#x143;" horiz-adv-x="670" 
d="M544 0l-403 611l2 -611h-68v750h51l403 -611l-2 611h68v-750h-51zM310 800l50 100h90l-90 -100h-50z" />
    <glyph glyph-name="nacute" unicode="&#x144;" horiz-adv-x="500" 
d="M370 363q0 49 -26.5 67t-73.5 18q-49 0 -78 -8t-57 -24v-416h-70v500h39l15 -42q70 52 151 52q90 0 130 -39t40 -111v-360h-70v363zM221 550l50 200h80l-80 -200h-50z" />
    <glyph glyph-name="Ncommaaccent" unicode="&#x145;" horiz-adv-x="670" 
d="M544 0l-403 611l2 -611h-68v750h51l403 -611l-2 611h68v-750h-51zM388 -50l-68 -200h-50l26 200h92z" />
    <glyph glyph-name="ncommaaccent" unicode="&#x146;" horiz-adv-x="500" 
d="M370 363q0 49 -26.5 67t-73.5 18q-49 0 -78 -8t-57 -24v-416h-70v500h39l15 -42q70 52 151 52q90 0 130 -39t40 -111v-360h-70v363zM293 -50l-56 -200h-50l26 200h80z" />
    <glyph glyph-name="Ncaron" unicode="&#x147;" horiz-adv-x="670" 
d="M544 0l-403 611l2 -611h-68v750h51l403 -611l-2 611h68v-750h-51zM236 900l99 -56l99 56h56l-115 -100h-80l-115 100h56z" />
    <glyph glyph-name="ncaron" unicode="&#x148;" horiz-adv-x="500" 
d="M370 363q0 49 -26.5 67t-73.5 18q-49 0 -78 -8t-57 -24v-416h-70v500h39l15 -42q70 52 151 52q90 0 130 -39t40 -111v-360h-70v363zM431 750l-145 -200h-80l-145 200h55l130 -141l130 141h55z" />
    <glyph glyph-name="Eng" unicode="&#x14a;" horiz-adv-x="670" 
d="M401 -201q22 3 45 10.5t41.5 21t30 33.5t11.5 49v109l-388 589l2 -611h-68v750h51l403 -611l-2 611h68v-846q0 -39 -17.5 -69t-45.5 -50.5t-62.5 -31.5t-68.5 -13v59z" />
    <glyph glyph-name="eng" unicode="&#x14b;" horiz-adv-x="500" 
d="M270 448q-49 0 -78 -8t-57 -24v-416h-70v500h39l15 -42q70 52 151 52q90 0 130 -39t40 -111v-456q0 -39 -18 -69t-46.5 -50.5t-64 -31.5t-69.5 -13v59q22 3 45 10.5t41.5 21t30 33.5t11.5 49v450q0 49 -26.5 67t-73.5 18z" />
    <glyph glyph-name="Omacron" unicode="&#x14c;" horiz-adv-x="680" 
d="M340 53q68 0 109 25t63 68.5t29 102t7 126.5q0 67 -7 126t-29 102.5t-63 68.5t-109 25t-109 -25t-63 -68.5t-29 -102.5t-7 -126q0 -68 7 -126.5t29 -102t63 -68.5t109 -25zM340 -10q-92 0 -147 32.5t-84.5 86.5t-39 123t-9.5 143q0 73 9.5 142.5t39 123.5t84.5 86.5
t147 32.5t147 -32.5t84.5 -86.5t39 -123.5t9.5 -142.5q0 -74 -9.5 -143t-39 -123t-84.5 -86.5t-147 -32.5zM203 880h274v-60h-274v60z" />
    <glyph glyph-name="omacron" unicode="&#x14d;" horiz-adv-x="530" 
d="M475 250q0 -57 -8.5 -105t-32 -82.5t-64.5 -53.5t-105 -19t-105 19t-64 53.5t-32 82.5t-9 105t9 105t32 82.5t64 53.5t105 19t105 -19t64.5 -53.5t32 -82.5t8.5 -105zM405 250q0 42 -3.5 78.5t-17.5 63t-42 41.5t-77 15q-50 0 -78 -15t-41.5 -41.5t-17 -63t-3.5 -78.5
t3.5 -78.5t17 -63t41.5 -41.5t78 -15q49 0 77 15t42 41.5t17.5 63t3.5 78.5zM129 680h274v-60h-274v60z" />
    <glyph glyph-name="Obreve" unicode="&#x14e;" horiz-adv-x="680" 
d="M340 53q68 0 109 25t63 68.5t29 102t7 126.5q0 67 -7 126t-29 102.5t-63 68.5t-109 25t-109 -25t-63 -68.5t-29 -102.5t-7 -126q0 -68 7 -126.5t29 -102t63 -68.5t109 -25zM340 -10q-92 0 -147 32.5t-84.5 86.5t-39 123t-9.5 143q0 73 9.5 142.5t39 123.5t84.5 86.5
t147 32.5t147 -32.5t84.5 -86.5t39 -123.5t9.5 -142.5q0 -74 -9.5 -143t-39 -123t-84.5 -86.5t-147 -32.5zM340 790q-141 0 -145 110h51q2 -31 26.5 -43t67.5 -12t67.5 12t26.5 43h51q-4 -110 -145 -110z" />
    <glyph glyph-name="obreve" unicode="&#x14f;" horiz-adv-x="530" 
d="M475 250q0 -57 -8.5 -105t-32 -82.5t-64.5 -53.5t-105 -19t-105 19t-64 53.5t-32 82.5t-9 105t9 105t32 82.5t64 53.5t105 19t105 -19t64.5 -53.5t32 -82.5t8.5 -105zM405 250q0 42 -3.5 78.5t-17.5 63t-42 41.5t-77 15q-50 0 -78 -15t-41.5 -41.5t-17 -63t-3.5 -78.5
t3.5 -78.5t17 -63t41.5 -41.5t78 -15q49 0 77 15t42 41.5t17.5 63t3.5 78.5zM266 550q-171 0 -175 200h51q1 -34 6.5 -60t19.5 -44t38 -27t60 -9t60 9t38 27t19.5 44t6.5 60h51q-4 -200 -175 -200z" />
    <glyph glyph-name="Ohungarumlaut" unicode="&#x150;" horiz-adv-x="680" 
d="M340 53q68 0 109 25t63 68.5t29 102t7 126.5q0 67 -7 126t-29 102.5t-63 68.5t-109 25t-109 -25t-63 -68.5t-29 -102.5t-7 -126q0 -68 7 -126.5t29 -102t63 -68.5t109 -25zM340 -10q-92 0 -147 32.5t-84.5 86.5t-39 123t-9.5 143q0 73 9.5 142.5t39 123.5t84.5 86.5
t147 32.5t147 -32.5t84.5 -86.5t39 -123.5t9.5 -142.5q0 -74 -9.5 -143t-39 -123t-84.5 -86.5t-147 -32.5zM375 800l50 100h90l-90 -100h-50zM255 800l50 100h90l-90 -100h-50z" />
    <glyph glyph-name="ohungarumlaut" unicode="&#x151;" horiz-adv-x="530" 
d="M475 250q0 -57 -8.5 -105t-32 -82.5t-64.5 -53.5t-105 -19t-105 19t-64 53.5t-32 82.5t-9 105t9 105t32 82.5t64 53.5t105 19t105 -19t64.5 -53.5t32 -82.5t8.5 -105zM405 250q0 42 -3.5 78.5t-17.5 63t-42 41.5t-77 15q-50 0 -78 -15t-41.5 -41.5t-17 -63t-3.5 -78.5
t3.5 -78.5t17 -63t41.5 -41.5t78 -15q49 0 77 15t42 41.5t17.5 63t3.5 78.5zM301 550l50 200h80l-80 -200h-50zM181 550l50 200h80l-80 -200h-50z" />
    <glyph glyph-name="OE" unicode="&#x152;" horiz-adv-x="890" 
d="M795 359h-290v-296h325v-63h-454q-92 0 -153 28.5t-97 79t-51 119t-15 148.5t15 148.5t51 119t97 79t153 28.5h454v-63h-325v-265h290v-63zM437 687h-65q-68 0 -113.5 -23.5t-74 -65t-40.5 -99t-12 -124.5q0 -68 12 -125t40.5 -98.5t74 -65t113.5 -23.5h65v624z" />
    <glyph glyph-name="oe" unicode="&#x153;" horiz-adv-x="860" 
d="M265 510q70 0 111.5 -22t64.5 -62q23 39 64.5 61.5t109.5 22.5q64 0 101.5 -20.5t57 -55.5t25.5 -82.5t6 -101.5v-32h-330q1 -33 7.5 -63t21.5 -53t42 -36.5t69 -13.5q54 0 91 6t74 22v-60q-42 -19 -85 -24.5t-80 -5.5q-68 0 -109.5 22.5t-64.5 61.5q-23 -40 -64.5 -62
t-111.5 -22q-64 0 -105 19t-64 53.5t-32 82.5t-9 105t9 105t32 82.5t64 53.5t105 19zM405 250q0 42 -3.5 78.5t-17.5 63t-42 41.5t-77 15q-50 0 -78 -15t-41.5 -41.5t-17 -63t-3.5 -78.5t3.5 -78.5t17 -63t41.5 -41.5t78 -15q49 0 77 15t42 41.5t17.5 63t3.5 78.5zM615 448
q-44 0 -70.5 -14.5t-41.5 -38.5t-21 -55t-7 -65h260q0 33 -2.5 64.5t-14.5 55.5t-36 38.5t-67 14.5z" />
    <glyph glyph-name="Racute" unicode="&#x154;" horiz-adv-x="621" 
d="M143 0h-68v750h235q70 0 117 -15t75.5 -42.5t40.5 -66.5t12 -87q0 -75 -30.5 -127t-107.5 -72l179 -340h-79l-168 329q-8 -1 -16.5 -1h-16.5h-173v-328zM143 391h185q50 0 80 12t46.5 32t21.5 47t5 57t-5 57t-21.5 47t-46.5 32t-80 12h-185v-296zM265 800l50 100h90
l-90 -100h-50z" />
    <glyph glyph-name="racute" unicode="&#x155;" horiz-adv-x="363" 
d="M340 440q-24 8 -60 8q-51 0 -84 -8t-61 -24v-416h-70v500h39l15 -42q35 26 77 39t84 13q17 0 31.5 -1.5t28.5 -3.5v-65zM186 550l50 200h80l-80 -200h-50z" />
    <glyph glyph-name="Rcommaaccent" unicode="&#x156;" horiz-adv-x="621" 
d="M143 0h-68v750h235q70 0 117 -15t75.5 -42.5t40.5 -66.5t12 -87q0 -75 -30.5 -127t-107.5 -72l179 -340h-79l-168 329q-8 -1 -16.5 -1h-16.5h-173v-328zM143 391h185q50 0 80 12t46.5 32t21.5 47t5 57t-5 57t-21.5 47t-46.5 32t-80 12h-185v-296zM363 -50l-68 -200h-50
l26 200h92z" />
    <glyph glyph-name="rcommaaccent" unicode="&#x157;" horiz-adv-x="363" 
d="M340 440q-24 8 -60 8q-51 0 -84 -8t-61 -24v-416h-70v500h39l15 -42q35 26 77 39t84 13q17 0 31.5 -1.5t28.5 -3.5v-65zM143 -50l-56 -200h-50l26 200h80z" />
    <glyph glyph-name="Rcaron" unicode="&#x158;" horiz-adv-x="621" 
d="M143 0h-68v750h235q70 0 117 -15t75.5 -42.5t40.5 -66.5t12 -87q0 -75 -30.5 -127t-107.5 -72l179 -340h-79l-168 329q-8 -1 -16.5 -1h-16.5h-173v-328zM143 391h185q50 0 80 12t46.5 32t21.5 47t5 57t-5 57t-21.5 47t-46.5 32t-80 12h-185v-296zM191 900l99 -56l99 56
h56l-115 -100h-80l-115 100h56z" />
    <glyph glyph-name="rcaron" unicode="&#x159;" horiz-adv-x="363" 
d="M340 440q-24 8 -60 8q-51 0 -84 -8t-61 -24v-416h-70v500h39l15 -42q35 26 77 39t84 13q17 0 31.5 -1.5t28.5 -3.5v-65zM396 750l-145 -200h-80l-145 200h55l130 -141l130 141h55z" />
    <glyph glyph-name="Sacute" unicode="&#x15a;" horiz-adv-x="595" 
d="M305 697q-56 0 -91 -12t-55.5 -32t-28 -46.5t-7.5 -56.5q0 -40 11.5 -63.5t34 -37t56.5 -19.5t78 -12q55 -7 99 -19t75 -34t47.5 -58t16.5 -91q0 -38 -12 -78t-43 -73t-84.5 -54t-137.5 -21q-26 0 -55.5 3.5t-58 9t-53.5 12.5t-43 15v65q18 -6 38.5 -13.5t46 -13.5
t56.5 -10.5t70 -4.5q58 0 97.5 13t62.5 35t33 51.5t10 63.5q0 40 -9 65.5t-29 41t-52 23.5t-79 14q-66 8 -113 21t-76 34.5t-42.5 54.5t-13.5 81q0 33 10 69.5t37.5 67.5t76.5 51.5t128 20.5q69 0 116.5 -10.5t78.5 -24.5v-67q-51 22 -96 30.5t-100 8.5zM281 800l50 100h90
l-90 -100h-50z" />
    <glyph glyph-name="sacute" unicode="&#x15b;" horiz-adv-x="460" 
d="M118 362q0 -17 4.5 -29.5t16.5 -21.5t34.5 -15t58.5 -9q53 -5 87.5 -16.5t54 -29.5t27 -42t7.5 -55q0 -29 -10 -56.5t-33.5 -49.5t-62 -35t-95.5 -13q-18 0 -39 2t-41.5 5.5t-38.5 8t-30 9.5v60q23 -8 59.5 -15.5t90.5 -7.5q39 0 64.5 7.5t40.5 20.5t21 29t6 34
q0 17 -3.5 31.5t-15.5 25.5t-34.5 18.5t-59.5 10.5q-54 5 -88.5 16.5t-53.5 29t-26 39.5t-7 48q0 27 9.5 53.5t31 47.5t57.5 34t89 13q35 0 73 -5.5t71 -19.5v-60q-29 10 -62 16.5t-83 6.5q-37 0 -60.5 -6.5t-36.5 -18t-18 -27.5t-5 -34zM215 550l50 200h80l-80 -200h-50z
" />
    <glyph glyph-name="Scircumflex" unicode="&#x15c;" horiz-adv-x="595" 
d="M305 697q-56 0 -91 -12t-55.5 -32t-28 -46.5t-7.5 -56.5q0 -40 11.5 -63.5t34 -37t56.5 -19.5t78 -12q55 -7 99 -19t75 -34t47.5 -58t16.5 -91q0 -38 -12 -78t-43 -73t-84.5 -54t-137.5 -21q-26 0 -55.5 3.5t-58 9t-53.5 12.5t-43 15v65q18 -6 38.5 -13.5t46 -13.5
t56.5 -10.5t70 -4.5q58 0 97.5 13t62.5 35t33 51.5t10 63.5q0 40 -9 65.5t-29 41t-52 23.5t-79 14q-66 8 -113 21t-76 34.5t-42.5 54.5t-13.5 81q0 33 10 69.5t37.5 67.5t76.5 51.5t128 20.5q69 0 116.5 -10.5t78.5 -24.5v-67q-51 22 -96 30.5t-100 8.5zM405 800l-99 56
l-99 -56h-56l115 100h80l115 -100h-56z" />
    <glyph glyph-name="scircumflex" unicode="&#x15d;" horiz-adv-x="460" 
d="M118 362q0 -17 4.5 -29.5t16.5 -21.5t34.5 -15t58.5 -9q53 -5 87.5 -16.5t54 -29.5t27 -42t7.5 -55q0 -29 -10 -56.5t-33.5 -49.5t-62 -35t-95.5 -13q-18 0 -39 2t-41.5 5.5t-38.5 8t-30 9.5v60q23 -8 59.5 -15.5t90.5 -7.5q39 0 64.5 7.5t40.5 20.5t21 29t6 34
q0 17 -3.5 31.5t-15.5 25.5t-34.5 18.5t-59.5 10.5q-54 5 -88.5 16.5t-53.5 29t-26 39.5t-7 48q0 27 9.5 53.5t31 47.5t57.5 34t89 13q35 0 73 -5.5t71 -19.5v-60q-29 10 -62 16.5t-83 6.5q-37 0 -60.5 -6.5t-36.5 -18t-18 -27.5t-5 -34zM360 550l-130 141l-130 -141h-55
l145 200h80l145 -200h-55z" />
    <glyph glyph-name="Scedilla" unicode="&#x15e;" horiz-adv-x="595" 
d="M305 697q-56 0 -91 -12t-55.5 -32t-28 -46.5t-7.5 -56.5q0 -40 11.5 -63.5t34 -37t56.5 -19.5t78 -12q55 -7 99 -19t75 -34t47.5 -58t16.5 -91q0 -36 -10.5 -74t-37.5 -69.5t-74 -54t-119 -26.5l5 -56q15 -4 31.5 -11t31 -18t23.5 -28t9 -40q0 -41 -29 -65t-82 -24
q-41 0 -63.5 6.5t-30.5 11.5v46q11 -4 23 -7q11 -2 24.5 -4t29.5 -2q31 0 49 8.5t18 27.5q0 16 -7.5 27t-19.5 18.5t-28 11.5t-34 6l9 90q-26 0 -54.5 3.5t-56.5 9t-52.5 12.5t-41.5 15v65q18 -6 38.5 -13.5t46 -13.5t56.5 -10.5t70 -4.5q58 0 97.5 13t62.5 35t33 51.5
t10 63.5q0 40 -9 65.5t-29 41t-52 23.5t-79 14q-66 8 -113 21t-76 34.5t-42.5 54.5t-13.5 81q0 33 10 69.5t37.5 67.5t76.5 51.5t128 20.5q69 0 116.5 -10.5t78.5 -24.5v-67q-51 22 -96 30.5t-100 8.5z" />
    <glyph glyph-name="scedilla" unicode="&#x15f;" horiz-adv-x="460" 
d="M118 362q0 -17 4.5 -29.5t16.5 -21.5t34.5 -15t58.5 -9q53 -5 87.5 -16.5t54 -29.5t27 -42t7.5 -55q0 -27 -9 -53.5t-29.5 -47.5t-54 -35t-82.5 -17l5 -55q15 -4 31.5 -11t31 -18t23.5 -28t9 -40q0 -41 -29 -65t-82 -24q-41 0 -63.5 6.5t-30.5 11.5v46q11 -4 23 -7
q11 -2 24.5 -4t29.5 -2q31 0 49 8.5t18 27.5q0 16 -7.5 27t-19.5 18.5t-28 11.5t-34 6l9 90q-18 1 -37 3t-37 5.5t-33.5 7.5t-26.5 9v60q23 -8 59.5 -15.5t90.5 -7.5q39 0 64.5 7.5t40.5 20.5t21 29t6 34q0 17 -3.5 31.5t-15.5 25.5t-34.5 18.5t-59.5 10.5q-54 5 -88.5 16.5
t-53.5 29t-26 39.5t-7 48q0 27 9.5 53.5t31 47.5t57.5 34t89 13q35 0 73 -5.5t71 -19.5v-60q-29 10 -62 16.5t-83 6.5q-37 0 -60.5 -6.5t-36.5 -18t-18 -27.5t-5 -34z" />
    <glyph glyph-name="Scaron" unicode="&#x160;" horiz-adv-x="595" 
d="M305 697q-56 0 -91 -12t-55.5 -32t-28 -46.5t-7.5 -56.5q0 -40 11.5 -63.5t34 -37t56.5 -19.5t78 -12q55 -7 99 -19t75 -34t47.5 -58t16.5 -91q0 -38 -12 -78t-43 -73t-84.5 -54t-137.5 -21q-26 0 -55.5 3.5t-58 9t-53.5 12.5t-43 15v65q18 -6 38.5 -13.5t46 -13.5
t56.5 -10.5t70 -4.5q58 0 97.5 13t62.5 35t33 51.5t10 63.5q0 40 -9 65.5t-29 41t-52 23.5t-79 14q-66 8 -113 21t-76 34.5t-42.5 54.5t-13.5 81q0 33 10 69.5t37.5 67.5t76.5 51.5t128 20.5q69 0 116.5 -10.5t78.5 -24.5v-67q-51 22 -96 30.5t-100 8.5zM521 1000l-145 -200
h-80l-145 200h55l130 -141l130 141h55z" />
    <glyph glyph-name="scaron" unicode="&#x161;" horiz-adv-x="460" 
d="M118 362q0 -17 4.5 -29.5t16.5 -21.5t34.5 -15t58.5 -9q53 -5 87.5 -16.5t54 -29.5t27 -42t7.5 -55q0 -29 -10 -56.5t-33.5 -49.5t-62 -35t-95.5 -13q-18 0 -39 2t-41.5 5.5t-38.5 8t-30 9.5v60q23 -8 59.5 -15.5t90.5 -7.5q39 0 64.5 7.5t40.5 20.5t21 29t6 34
q0 17 -3.5 31.5t-15.5 25.5t-34.5 18.5t-59.5 10.5q-54 5 -88.5 16.5t-53.5 29t-26 39.5t-7 48q0 27 9.5 53.5t31 47.5t57.5 34t89 13q35 0 73 -5.5t71 -19.5v-60q-29 10 -62 16.5t-83 6.5q-37 0 -60.5 -6.5t-36.5 -18t-18 -27.5t-5 -34zM415 750l-145 -200h-80l-145 200h55
l130 -141l130 141h55z" />
    <glyph glyph-name="Tcommaaccent" unicode="&#x162;" horiz-adv-x="560" 
d="M314 687v-687h-68v687h-207v63h482v-63h-207zM329 -50l-68 -200h-50l26 200h92z" />
    <glyph glyph-name="tcommaaccent" unicode="&#x163;" horiz-adv-x="375" 
d="M325 -6q-9 -2 -22 -3t-23 -1q-31 0 -60 7.5t-51 24t-35.5 42t-13.5 62.5v319h-100v31l100 29v135l70 20v-160h155v-55h-155v-311q0 -46 24 -66t72 -20q10 0 19.5 0.5t19.5 1.5v-56zM252 -50l-56 -200h-50l26 200h80z" />
    <glyph glyph-name="Tcaron" unicode="&#x164;" horiz-adv-x="560" 
d="M314 687v-687h-68v687h-207v63h482v-63h-207zM182 900l99 -56l99 56h56l-115 -100h-80l-115 100h56z" />
    <glyph glyph-name="tcaron" unicode="&#x165;" horiz-adv-x="375" 
d="M325 -6q-9 -2 -22 -3t-23 -1q-31 0 -60 7.5t-51 24t-35.5 42t-13.5 62.5v319h-100v31l100 29v135l70 20v-160h155v-55h-155v-311q0 -46 24 -66t72 -20q10 0 19.5 0.5t19.5 1.5v-56zM335 750l-48 -200h-46l16 200h78z" />
    <glyph glyph-name="Tbar" unicode="&#x166;" horiz-adv-x="560" 
d="M314 0h-68v360h-125v61h125v266h-207v63h482v-63h-207v-266h125v-61h-125v-360z" />
    <glyph glyph-name="tbar" unicode="&#x167;" horiz-adv-x="377" 
d="M325 -6q-9 -2 -22 -3t-23 -1q-31 0 -60 7.5t-51 24t-35.5 42t-13.5 62.5v124h-100v55h100v140h-100v31l100 29v135l70 20v-160h155v-55h-155v-140h125v-55h-125v-116q0 -46 24 -66t72 -20q10 0 19.5 0.5t19.5 1.5v-56z" />
    <glyph glyph-name="Utilde" unicode="&#x168;" horiz-adv-x="670" 
d="M335 53q25 0 59 5t64.5 24t52 57.5t21.5 106.5v504h68v-515q0 -53 -13.5 -92t-35.5 -66t-50 -44t-57.5 -26.5t-58 -13t-50.5 -3.5q-34 0 -79.5 8.5t-87 34.5t-70 74t-28.5 128v515h68v-504q0 -68 21.5 -106.5t52 -57.5t64.5 -24t59 -5zM415 849q17 0 26.5 5t14.5 13
t6.5 16.5t1.5 16.5h56q4 -53 -25.5 -81.5t-83.5 -28.5q-27 0 -46.5 9.5t-36 21t-31.5 21t-34 9.5q-17 0 -26.5 -5t-14.5 -13t-6.5 -17t-1.5 -16h-56q-4 53 25.5 81.5t83.5 28.5q27 0 46.5 -9.5t36 -21t31.5 -21t34 -9.5z" />
    <glyph glyph-name="utilde" unicode="&#x169;" horiz-adv-x="500" 
d="M130 137q0 -49 26.5 -67t73.5 -18q49 0 78 8t57 24v416h70v-500h-39l-15 42q-70 -52 -151 -52q-90 0 -130 39t-40 111v360h70v-363zM324 644q17 0 26.5 5t14.5 13t6.5 16.5t1.5 16.5h56q4 -53 -25.5 -81.5t-83.5 -28.5q-31 0 -50 11t-34 24.5t-29 24.5t-35 11
q-17 0 -26.5 -5t-14.5 -13t-6.5 -17t-1.5 -16h-56q-4 53 25.5 81.5t83.5 28.5q31 0 50 -11t34 -24.5t29 -24.5t35 -11z" />
    <glyph glyph-name="Umacron" unicode="&#x16a;" horiz-adv-x="670" 
d="M335 53q25 0 59 5t64.5 24t52 57.5t21.5 106.5v504h68v-515q0 -53 -13.5 -92t-35.5 -66t-50 -44t-57.5 -26.5t-58 -13t-50.5 -3.5q-34 0 -79.5 8.5t-87 34.5t-70 74t-28.5 128v515h68v-504q0 -68 21.5 -106.5t52 -57.5t64.5 -24t59 -5zM198 880h274v-60h-274v60z" />
    <glyph glyph-name="umacron" unicode="&#x16b;" horiz-adv-x="500" 
d="M130 137q0 -49 26.5 -67t73.5 -18q49 0 78 8t57 24v416h70v-500h-39l-15 42q-70 -52 -151 -52q-90 0 -130 39t-40 111v360h70v-363zM111 680h274v-60h-274v60z" />
    <glyph glyph-name="Ubreve" unicode="&#x16c;" horiz-adv-x="670" 
d="M335 53q25 0 59 5t64.5 24t52 57.5t21.5 106.5v504h68v-515q0 -53 -13.5 -92t-35.5 -66t-50 -44t-57.5 -26.5t-58 -13t-50.5 -3.5q-34 0 -79.5 8.5t-87 34.5t-70 74t-28.5 128v515h68v-504q0 -68 21.5 -106.5t52 -57.5t64.5 -24t59 -5zM335 790q-141 0 -145 110h51
q2 -31 26.5 -43t67.5 -12t67.5 12t26.5 43h51q-4 -110 -145 -110z" />
    <glyph glyph-name="ubreve" unicode="&#x16d;" horiz-adv-x="500" 
d="M130 137q0 -49 26.5 -67t73.5 -18q49 0 78 8t57 24v416h70v-500h-39l-15 42q-70 -52 -151 -52q-90 0 -130 39t-40 111v360h70v-363zM248 550q-171 0 -175 200h51q1 -34 6.5 -60t19.5 -44t38 -27t60 -9t60 9t38 27t19.5 44t6.5 60h51q-4 -200 -175 -200z" />
    <glyph glyph-name="Uring" unicode="&#x16e;" horiz-adv-x="670" 
d="M335 53q25 0 59 5t64.5 24t52 57.5t21.5 106.5v504h68v-515q0 -53 -13.5 -92t-35.5 -66t-50 -44t-57.5 -26.5t-58 -13t-50.5 -3.5q-34 0 -79.5 8.5t-87 34.5t-70 74t-28.5 128v515h68v-504q0 -68 21.5 -106.5t52 -57.5t64.5 -24t59 -5zM335 828q44 0 44 22t-44 22
t-44 -22t44 -22zM335 921q19 0 36 -3.5t30 -11.5t20.5 -21.5t7.5 -34.5t-7.5 -34.5t-20.5 -21.5t-30 -11.5t-36 -3.5t-36 3.5t-30 11.5t-20.5 21.5t-7.5 34.5t7.5 34.5t20.5 21.5t30 11.5t36 3.5z" />
    <glyph glyph-name="uring" unicode="&#x16f;" horiz-adv-x="500" 
d="M130 137q0 -49 26.5 -67t73.5 -18q49 0 78 8t57 24v416h70v-500h-39l-15 42q-70 -52 -151 -52q-90 0 -130 39t-40 111v360h70v-363zM248 702q-23 0 -38.5 -12t-15.5 -40t15.5 -40t38.5 -12t38.5 12t15.5 40t-15.5 40t-38.5 12zM248 549q-45 0 -74.5 24.5t-29.5 76.5
t29.5 76.5t74.5 24.5t74.5 -24.5t29.5 -76.5t-29.5 -76.5t-74.5 -24.5z" />
    <glyph glyph-name="Uhungarumlaut" unicode="&#x170;" horiz-adv-x="670" 
d="M335 53q25 0 59 5t64.5 24t52 57.5t21.5 106.5v504h68v-515q0 -53 -13.5 -92t-35.5 -66t-50 -44t-57.5 -26.5t-58 -13t-50.5 -3.5q-34 0 -79.5 8.5t-87 34.5t-70 74t-28.5 128v515h68v-504q0 -68 21.5 -106.5t52 -57.5t64.5 -24t59 -5zM370 800l50 100h90l-90 -100h-50z
M250 800l50 100h90l-90 -100h-50z" />
    <glyph glyph-name="uhungarumlaut" unicode="&#x171;" horiz-adv-x="500" 
d="M130 137q0 -49 26.5 -67t73.5 -18q49 0 78 8t57 24v416h70v-500h-39l-15 42q-70 -52 -151 -52q-90 0 -130 39t-40 111v360h70v-363zM283 550l50 200h80l-80 -200h-50zM163 550l50 200h80l-80 -200h-50z" />
    <glyph glyph-name="Uogonek" unicode="&#x172;" horiz-adv-x="670" 
d="M335 53q25 0 59 5t64.5 24t52 57.5t21.5 106.5v504h68v-515q0 -59 -16 -100t-41.5 -68.5t-57.5 -43.5t-64 -23q-49 -27 -77.5 -65t-28.5 -77q0 -23 12.5 -40t41.5 -17q17 0 31.5 2.5t25.5 5.5v-48q-13 -5 -31 -8t-40 -3q-45 0 -73 25t-28 70q0 40 19 77.5t56 67.5
q-35 1 -79.5 10t-84.5 35t-67.5 74t-27.5 126v515h68v-504q0 -68 21.5 -106.5t52 -57.5t64.5 -24t59 -5z" />
    <glyph glyph-name="uogonek" unicode="&#x173;" horiz-adv-x="500" 
d="M130 137q0 -49 26.5 -67t73.5 -18q49 0 78 8t57 24v416h70v-500q-49 -27 -77.5 -65t-28.5 -77q0 -23 12.5 -40t41.5 -17q17 0 31.5 2.5t25.5 5.5v-48q-13 -5 -31 -8t-40 -3q-45 0 -73 25t-28 70q0 51 30.5 97.5t89.5 78.5l-7 21q-70 -52 -151 -52q-90 0 -130 39t-40 111
v360h70v-363z" />
    <glyph glyph-name="Wcircumflex" unicode="&#x174;" horiz-adv-x="880" 
d="M478 750l169 -654l131 654h72l-164 -760h-73l-173 670l-173 -670h-73l-164 760h72l131 -654l169 654h76zM539 800l-99 56l-99 -56h-56l115 100h80l115 -100h-56z" />
    <glyph glyph-name="wcircumflex" unicode="&#x175;" horiz-adv-x="700" 
d="M680 500l-141 -510h-52l-137 435l-137 -435h-52l-141 510h75l94 -392l124 392h74l124 -392l94 392h75zM480 550l-130 141l-130 -141h-55l145 200h80l145 -200h-55z" />
    <glyph glyph-name="Ycircumflex" unicode="&#x176;" horiz-adv-x="670" 
d="M369 310v-310h-68v310l-271 440h75l230 -385l230 385h75zM434 800l-99 56l-99 -56h-56l115 100h80l115 -100h-56z" />
    <glyph glyph-name="ycircumflex" unicode="&#x177;" horiz-adv-x="480" 
d="M100 500l140 -410l140 410h80l-288 -750h-75l113 263l-190 487h80zM371 550l-130 141l-130 -141h-55l145 200h80l145 -200h-55z" />
    <glyph glyph-name="Ydieresis" unicode="&#x178;" horiz-adv-x="670" 
d="M369 310v-310h-68v310l-271 440h75l230 -385l230 385h75zM380 850q0 21 14.5 35.5t35.5 14.5t35.5 -14.5t14.5 -35.5t-14.5 -35.5t-35.5 -14.5t-35.5 14.5t-14.5 35.5zM190 850q0 21 14.5 35.5t35.5 14.5t35.5 -14.5t14.5 -35.5t-14.5 -35.5t-35.5 -14.5t-35.5 14.5
t-14.5 35.5z" />
    <glyph glyph-name="Zacute" unicode="&#x179;" horiz-adv-x="610" 
d="M40 0v46l427 643l-407 -2v63h495v-46l-427 -643l442 2v-63h-530zM280 800l50 100h90l-90 -100h-50z" />
    <glyph glyph-name="zacute" unicode="&#x17a;" horiz-adv-x="450" 
d="M35 0v45l293 396h-278v59h365v-45l-293 -396h303v-59h-390zM201 550l50 200h80l-80 -200h-50z" />
    <glyph glyph-name="Zdotaccent" unicode="&#x17b;" horiz-adv-x="610" 
d="M40 0v46l427 643l-407 -2v63h495v-46l-427 -643l442 2v-63h-530zM255 850q0 21 14.5 35.5t35.5 14.5t35.5 -14.5t14.5 -35.5t-14.5 -35.5t-35.5 -14.5t-35.5 14.5t-14.5 35.5z" />
    <glyph glyph-name="zdotaccent" unicode="&#x17c;" horiz-adv-x="450" 
d="M35 0v45l293 396h-278v59h365v-45l-293 -396h303v-59h-390zM176 650q0 21 14.5 35.5t35.5 14.5t35.5 -14.5t14.5 -35.5t-14.5 -35.5t-35.5 -14.5t-35.5 14.5t-14.5 35.5z" />
    <glyph glyph-name="florin" unicode="&#x192;" horiz-adv-x="600" 
d="M365 760q37 0 77 -5.5t73 -19.5v-60q-29 10 -63 16.5t-87 6.5q-49 0 -81 -26t-32 -77v-95h238v-62h-238v-438h-67v438h-120v62h120v95q0 76 43 120.5t137 44.5z" />
    <glyph glyph-name="Scommaaccent" unicode="&#x218;" horiz-adv-x="595" 
d="M305 697q-56 0 -91 -12t-55.5 -32t-28 -46.5t-7.5 -56.5q0 -40 11.5 -63.5t34 -37t56.5 -19.5t78 -12q55 -7 99 -19t75 -34t47.5 -58t16.5 -91q0 -38 -12 -78t-43 -73t-84.5 -54t-137.5 -21q-26 0 -55.5 3.5t-58 9t-53.5 12.5t-43 15v65q18 -6 38.5 -13.5t46 -13.5
t56.5 -10.5t70 -4.5q58 0 97.5 13t62.5 35t33 51.5t10 63.5q0 40 -9 65.5t-29 41t-52 23.5t-79 14q-66 8 -113 21t-76 34.5t-42.5 54.5t-13.5 81q0 33 10 69.5t37.5 67.5t76.5 51.5t128 20.5q69 0 116.5 -10.5t78.5 -24.5v-67q-51 22 -96 30.5t-100 8.5zM324 -50l-68 -200
h-50l26 200h92z" />
    <glyph glyph-name="scommaaccent" unicode="&#x219;" horiz-adv-x="460" 
d="M118 362q0 -17 4.5 -29.5t16.5 -21.5t34.5 -15t58.5 -9q53 -5 87.5 -16.5t54 -29.5t27 -42t7.5 -55q0 -29 -10 -56.5t-33.5 -49.5t-62 -35t-95.5 -13q-18 0 -39 2t-41.5 5.5t-38.5 8t-30 9.5v60q23 -8 59.5 -15.5t90.5 -7.5q39 0 64.5 7.5t40.5 20.5t21 29t6 34
q0 17 -3.5 31.5t-15.5 25.5t-34.5 18.5t-59.5 10.5q-54 5 -88.5 16.5t-53.5 29t-26 39.5t-7 48q0 27 9.5 53.5t31 47.5t57.5 34t89 13q35 0 73 -5.5t71 -19.5v-60q-29 10 -62 16.5t-83 6.5q-37 0 -60.5 -6.5t-36.5 -18t-18 -27.5t-5 -34zM267 -50l-56 -200h-50l26 200h80z
" />
    <glyph glyph-name="dotlessj" unicode="&#x237;" horiz-adv-x="230" 
d="M-47 -201q22 3 45 10.5t41.5 21t30 33.5t11.5 49v587h68v-596q0 -39 -18 -69t-46 -50.5t-63 -31.5t-69 -13v59z" />
    <glyph glyph-name="circumflex" unicode="&#x2c6;" 
d="M415 550l-130 141l-130 -141h-55l145 200h80l145 -200h-55z" />
    <glyph glyph-name="caron" unicode="&#x2c7;" 
d="M470 750l-145 -200h-80l-145 200h55l130 -141l130 141h55z" />
    <glyph glyph-name="breve" unicode="&#x2d8;" 
d="M285 550q-171 0 -175 200h51q1 -34 6.5 -60t19.5 -44t38 -27t60 -9t60 9t38 27t19.5 44t6.5 60h51q-4 -200 -175 -200z" />
    <glyph glyph-name="dotaccent" unicode="&#x2d9;" 
d="M235 650q0 21 14.5 35.5t35.5 14.5t35.5 -14.5t14.5 -35.5t-14.5 -35.5t-35.5 -14.5t-35.5 14.5t-14.5 35.5z" />
    <glyph glyph-name="ring" unicode="&#x2da;" 
d="M285 702q-23 0 -38.5 -12t-15.5 -40t15.5 -40t38.5 -12t38.5 12t15.5 40t-15.5 40t-38.5 12zM285 549q-45 0 -74.5 24.5t-29.5 76.5t29.5 76.5t74.5 24.5t74.5 -24.5t29.5 -76.5t-29.5 -76.5t-74.5 -24.5z" />
    <glyph glyph-name="ogonek" unicode="&#x2db;" 
d="M356 0q-49 -27 -77.5 -65t-28.5 -77q0 -23 12.5 -40t41.5 -17q17 0 31.5 2.5t25.5 5.5v-48q-13 -5 -31 -8t-40 -3q-45 0 -73 25t-28 70q0 57 37.5 107t108.5 82z" />
    <glyph glyph-name="tilde" unicode="&#x2dc;" 
d="M361 644q17 0 26.5 5t14.5 13t6.5 16.5t1.5 16.5h56q4 -53 -25.5 -81.5t-83.5 -28.5q-31 0 -50 11t-34 24.5t-29 24.5t-35 11q-17 0 -26.5 -5t-14.5 -13t-6.5 -17t-1.5 -16h-56q-4 53 25.5 81.5t83.5 28.5q31 0 50 -11t34 -24.5t29 -24.5t35 -11z" />
    <glyph glyph-name="hungarumlaut" unicode="&#x2dd;" 
d="M320 550l50 200h80l-80 -200h-50zM200 550l50 200h80l-80 -200h-50z" />
    <glyph glyph-name="Wgrave" unicode="&#x1e80;" horiz-adv-x="880" 
d="M478 750l169 -654l131 654h72l-164 -760h-73l-173 670l-173 -670h-73l-164 760h72l131 -654l169 654h76zM415 800l-90 100h90l50 -100h-50z" />
    <glyph glyph-name="wgrave" unicode="&#x1e81;" horiz-adv-x="700" 
d="M680 500l-141 -510h-52l-137 435l-137 -435h-52l-141 510h75l94 -392l124 392h74l124 -392l94 392h75zM325 550l-80 200h80l50 -200h-50z" />
    <glyph glyph-name="Wacute" unicode="&#x1e82;" horiz-adv-x="880" 
d="M478 750l169 -654l131 654h72l-164 -760h-73l-173 670l-173 -670h-73l-164 760h72l131 -654l169 654h76zM415 800l50 100h90l-90 -100h-50z" />
    <glyph glyph-name="wacute" unicode="&#x1e83;" horiz-adv-x="700" 
d="M680 500l-141 -510h-52l-137 435l-137 -435h-52l-141 510h75l94 -392l124 392h74l124 -392l94 392h75zM325 550l50 200h80l-80 -200h-50z" />
    <glyph glyph-name="Wdieresis" unicode="&#x1e84;" horiz-adv-x="880" 
d="M478 750l169 -654l131 654h72l-164 -760h-73l-173 670l-173 -670h-73l-164 760h72l131 -654l169 654h76zM485 850q0 21 14.5 35.5t35.5 14.5t35.5 -14.5t14.5 -35.5t-14.5 -35.5t-35.5 -14.5t-35.5 14.5t-14.5 35.5zM295 850q0 21 14.5 35.5t35.5 14.5t35.5 -14.5
t14.5 -35.5t-14.5 -35.5t-35.5 -14.5t-35.5 14.5t-14.5 35.5z" />
    <glyph glyph-name="wdieresis" unicode="&#x1e85;" horiz-adv-x="700" 
d="M680 500l-141 -510h-52l-137 435l-137 -435h-52l-141 510h75l94 -392l124 392h74l124 -392l94 392h75zM205 650q0 21 14.5 35.5t35.5 14.5t35.5 -14.5t14.5 -35.5t-14.5 -35.5t-35.5 -14.5t-35.5 14.5t-14.5 35.5zM395 650q0 21 14.5 35.5t35.5 14.5t35.5 -14.5
t14.5 -35.5t-14.5 -35.5t-35.5 -14.5t-35.5 14.5t-14.5 35.5z" />
    <glyph glyph-name="endash" unicode="&#x2013;" horiz-adv-x="500" 
d="M455 272h-410v66h410v-66z" />
    <glyph glyph-name="emdash" unicode="&#x2014;" horiz-adv-x="1000" 
d="M955 272h-910v66h910v-66z" />
    <glyph glyph-name="quoteleft" unicode="&#x2018;" horiz-adv-x="150" 
d="M117 750l-29 -250h-95l80 250h44z" />
    <glyph glyph-name="quoteright" unicode="&#x2019;" horiz-adv-x="150" 
d="M33 500l29 250h95l-80 -250h-44z" />
    <glyph glyph-name="quotesinglbase" unicode="&#x201a;" horiz-adv-x="150" 
d="M23 -175l29 250h95l-80 -250h-44z" />
    <glyph glyph-name="quotedblleft" unicode="&#x201c;" horiz-adv-x="300" 
d="M267 750l-29 -250h-95l80 250h44zM117 750l-29 -250h-95l80 250h44z" />
    <glyph glyph-name="quotedblright" unicode="&#x201d;" horiz-adv-x="300" 
d="M33 500l29 250h95l-80 -250h-44zM183 500l29 250h95l-80 -250h-44z" />
    <glyph glyph-name="quotedblbase" unicode="&#x201e;" horiz-adv-x="300" 
d="M23 -175l29 250h95l-80 -250h-44zM173 -175l29 250h95l-80 -250h-44z" />
    <glyph glyph-name="dagger" unicode="&#x2020;" horiz-adv-x="360" 
d="M199 551l31 -250h-100l31 250h38zM161 609l-20 141h78l-20 -141h-38zM151 561l-141 -20v78l141 -20v-38zM209 599l141 20v-78l-141 20v38z" />
    <glyph glyph-name="daggerdbl" unicode="&#x2021;" horiz-adv-x="360" 
d="M199 352l31 -250h-100l31 250h38zM209 599l141 20v-78l-141 20v38zM161 609l-20 141h78l-20 -141h-38zM209 400l141 20v-78l-141 20v38zM151 362l-141 -20v78l141 -20v-38zM151 561l-141 -20v78l141 -20v-38zM199 551l10 -71l-10 -70h-38l-10 70l10 71h38z" />
    <glyph glyph-name="bullet" unicode="&#x2022;" horiz-adv-x="370" 
d="M50 375q0 28 10.5 52.5t29 43t43 29t52.5 10.5t52.5 -10.5t43 -29t29 -43t10.5 -52.5t-10.5 -52.5t-29 -43t-43 -29t-52.5 -10.5t-52.5 10.5t-43 29t-29 43t-10.5 52.5z" />
    <glyph glyph-name="ellipsis" unicode="&#x2026;" horiz-adv-x="960" 
d="M100 40q0 21 14.5 35.5t35.5 14.5t35.5 -14.5t14.5 -35.5t-14.5 -35.5t-35.5 -14.5t-35.5 14.5t-14.5 35.5zM430 40q0 21 14.5 35.5t35.5 14.5t35.5 -14.5t14.5 -35.5t-14.5 -35.5t-35.5 -14.5t-35.5 14.5t-14.5 35.5zM760 40q0 21 14.5 35.5t35.5 14.5t35.5 -14.5
t14.5 -35.5t-14.5 -35.5t-35.5 -14.5t-35.5 14.5t-14.5 35.5z" />
    <glyph glyph-name="perthousand" unicode="&#x2030;" horiz-adv-x="1315" 
d="M221 370q-91 0 -131 49t-40 146t40 146t131 49t131 -49t40 -146t-40 -146t-131 -49zM674 380q91 0 131 -49t40 -146t-40 -146t-131 -49t-131 49t-40 146t40 146t131 49zM1094 380q91 0 131 -49t40 -146t-40 -146t-131 -49t-131 49t-40 146t40 146t131 49zM144 0l530 750
h77l-530 -750h-77zM221 430q57 0 82 30.5t25 104.5t-25 104.5t-82 30.5t-82 -30.5t-25 -104.5t25 -104.5t82 -30.5zM1094 320q-57 0 -82 -30.5t-25 -104.5t25 -104.5t82 -30.5t82 30.5t25 104.5t-25 104.5t-82 30.5zM674 320q-57 0 -82 -30.5t-25 -104.5t25 -104.5t82 -30.5
t82 30.5t25 104.5t-25 104.5t-82 30.5z" />
    <glyph glyph-name="guilsinglleft" unicode="&#x2039;" horiz-adv-x="275" 
d="M40 283l190 140v-66l-126 -107l126 -107v-67l-190 141v66z" />
    <glyph glyph-name="guilsinglright" unicode="&#x203a;" horiz-adv-x="275" 
d="M235 216l-190 -140v66l126 107l-126 107v67l190 -141v-66z" />
    <glyph glyph-name="fraction" unicode="&#x2044;" horiz-adv-x="447" 
d="M-80 0l530 750h77l-530 -750h-77z" />
    <glyph glyph-name="Euro" unicode="&#x20ac;" horiz-adv-x="600" 
d="M63 418v66h64q5 64 20 115t44 87t74.5 55t112.5 19q37 0 81.5 -7t77.5 -21v-60q-29 10 -67 18t-92 8q-47 0 -79.5 -15t-53.5 -43t-32.5 -67.5t-15.5 -88.5h279l-23 -66h-260v-86h230l-23 -66h-203q4 -49 15.5 -88.5t32.5 -67.5t53.5 -43t79.5 -15q54 0 92 8t67 18v-60
q-33 -14 -77.5 -21t-81.5 -7q-67 0 -112.5 19t-74.5 54.5t-44 86.5t-20 116h-64v66h60v86h-60z" />
    <glyph glyph-name="trademark" unicode="&#x2122;" horiz-adv-x="545" 
d="M123 712v-212h-44v212h-80v38h204v-38h-80zM360 531l-73 158l2 -189h-42v250h55l77 -169l78 169h54v-250h-42l2 189l-73 -158h-38z" />
    <glyph glyph-name="partialdiff" unicode="&#x2202;" horiz-adv-x="530" 
d="M475 250q0 -57 -8.5 -105t-32 -82.5t-64.5 -53.5t-105 -19t-105 19t-64 53.5t-32 82.5t-9 105t9 105t32 82.5t64 53.5t105 19q45 0 77.5 -12.5t55.5 -34.5q-12 115 -50.5 175t-122.5 60q-56 0 -95.5 -8.5t-59.5 -18.5v60q17 9 53.5 19t101.5 10q76 0 124.5 -32.5
t76.5 -96.5t38.5 -159.5t10.5 -221.5zM405 250q0 42 -3.5 78.5t-17.5 63t-42 41.5t-77 15q-50 0 -78 -15t-41.5 -41.5t-17 -63t-3.5 -78.5t3.5 -78.5t17 -63t41.5 -41.5t78 -15q49 0 77 15t42 41.5t17.5 63t3.5 78.5z" />
    <glyph glyph-name="Delta" unicode="&#x2206;" horiz-adv-x="700" 
d="M20 43l294 717h72l294 -717v-43h-660v43zM604 61l-254 625l-254 -625h508z" />
    <glyph glyph-name="product" unicode="&#x220f;" horiz-adv-x="740" 
d="M609 689v-689h-71v689h-336v-689h-71v689h-96v61h670v-61h-96z" />
    <glyph glyph-name="summation" unicode="&#x2211;" horiz-adv-x="635" 
d="M570 750v-61l-415 2l315 -282v-48l-340 -302l465 2v-61h-555v58l366 327l-336 307v58h500z" />
    <glyph glyph-name="radical" unicode="&#x221a;" horiz-adv-x="740" 
d="M735 750l-431 -760h-81l-98 449h-105v61h164l90 -434l379 684h82z" />
    <glyph glyph-name="infinity" unicode="&#x221e;" horiz-adv-x="800" 
d="M752 357q0 -77 -43.5 -115t-118.5 -38q-57 0 -105.5 28.5t-84.5 70.5q-36 -42 -84.5 -70.5t-105.5 -28.5q-75 0 -118.5 38t-43.5 115t43.5 115t118.5 38q57 0 106 -29t84 -71q36 42 84.5 71t105.5 29q75 0 118.5 -38t43.5 -115zM683 357q0 27 -7 44.5t-20 28t-30 15
t-36 3.5q-25 -1 -47 -9.5t-41 -21t-34.5 -28.5t-27.5 -32q12 -16 27.5 -32t34.5 -28.5t41 -21t47 -9.5q39 -2 66 18t27 73zM210 266q25 1 47 9.5t41 21t34.5 28.5t27.5 32q-12 16 -27.5 32t-34.5 28.5t-41 21t-47 9.5q-20 1 -36.5 -3.5t-29.5 -15t-20 -28t-7 -44.5
q0 -53 27 -73t66 -18z" />
    <glyph glyph-name="integral" unicode="&#x222b;" horiz-adv-x="337" 
d="M-47 -201q22 3 45 10.5t41.5 21t30 33.5t11.5 49v697q0 72 43.5 111t137.5 39q16 0 35.5 -1.5t34.5 -5.5v-63q-15 4 -31 6t-39 2q-49 0 -81 -19.5t-32 -68.5v-706q0 -39 -18 -69t-46 -50.5t-63 -31.5t-69 -13v59z" />
    <glyph glyph-name="approxequal" unicode="&#x2248;" horiz-adv-x="490" 
d="M342 400q19 0 35.5 4.5t30 10.5t23 13t14.5 12v-65q-13 -12 -39.5 -23t-61.5 -11q-38 0 -62.5 11.5t-44.5 25t-40 25t-49 11.5q-19 0 -35.5 -4.5t-30 -10.5t-23 -13t-14.5 -12v65q13 12 39.5 23t61.5 11q38 0 62.5 -11.5t44.5 -25t40 -25t49 -11.5zM342 268
q19 0 35.5 4.5t30 10.5t23 13t14.5 12v-65q-13 -12 -39.5 -23t-61.5 -11q-38 0 -62.5 11.5t-44.5 25t-40 25t-49 11.5q-19 0 -35.5 -4.5t-30 -10.5t-23 -13t-14.5 -12v65q13 12 39.5 23t61.5 11q38 0 62.5 -11.5t44.5 -25t40 -25t49 -11.5z" />
    <glyph glyph-name="notequal" unicode="&#x2260;" horiz-adv-x="490" 
d="M445 374h-400v66h205l56 167h78l-64 -167h125v-66zM445 242h-201l-56 -167h-78l64 167h-129v66h400v-66z" />
    <glyph glyph-name="lessequal" unicode="&#x2264;" horiz-adv-x="490" 
d="M445 205l-400 168v66l400 168v-70l-325 -131l325 -131v-70zM445 75l-400 168v70l400 -168v-70z" />
    <glyph glyph-name="greaterequal" unicode="&#x2265;" horiz-adv-x="490" 
d="M45 275l325 131l-325 131v70l400 -168v-66l-400 -168v70zM45 145l400 168v-70l-400 -168v70z" />
    <glyph glyph-name="lozenge" unicode="&#x25ca;" horiz-adv-x="690" 
d="M590 375l-245 298l-245 -298l245 -298zM25 375l320 385l320 -385l-320 -385z" />
    <glyph glyph-name="fi" unicode="&#xe38c;" horiz-adv-x="615" 
d="M370 690q-15 4 -31 6t-39 2q-49 0 -81 -19.5t-32 -68.5v-110h158v-55h-158v-445h-67v445h-100v31l100 29v105q0 72 43 111t137 39q16 0 35.5 -1.5t34.5 -5.5v-63zM566 -10q-54 0 -82 25t-28 85v400h68v-408q0 -26 9.5 -35.5t32.5 -9.5v-57zM440 650q0 21 14.5 35.5
t35.5 14.5t35.5 -14.5t14.5 -35.5t-14.5 -35.5t-35.5 -14.5t-35.5 14.5t-14.5 35.5z" />
    <glyph glyph-name="fi" unicode="&#xfb01;" horiz-adv-x="615" 
d="M370 690q-15 4 -31 6t-39 2q-49 0 -81 -19.5t-32 -68.5v-110h158v-55h-158v-445h-67v445h-100v31l100 29v105q0 72 43 111t137 39q16 0 35.5 -1.5t34.5 -5.5v-63zM566 -10q-54 0 -82 25t-28 85v400h68v-408q0 -26 9.5 -35.5t32.5 -9.5v-57zM440 650q0 21 14.5 35.5
t35.5 14.5t35.5 -14.5t14.5 -35.5t-14.5 -35.5t-35.5 -14.5t-35.5 14.5t-14.5 35.5z" />
    <glyph glyph-name="fl" unicode="&#xe38d;" horiz-adv-x="615" 
d="M370 690q-15 4 -31 6t-39 2q-49 0 -81 -19.5t-32 -68.5v-110h158v-55h-158v-445h-67v445h-100v31l100 29v105q0 72 43 111t137 39q16 0 35.5 -1.5t34.5 -5.5v-63zM566 -10q-54 0 -82 25t-28 85v650h68v-658q0 -26 9.5 -35.5t32.5 -9.5v-57z" />
    <glyph glyph-name="fl" unicode="&#xfb02;" horiz-adv-x="615" 
d="M370 690q-15 4 -31 6t-39 2q-49 0 -81 -19.5t-32 -68.5v-110h158v-55h-158v-445h-67v445h-100v31l100 29v105q0 72 43 111t137 39q16 0 35.5 -1.5t34.5 -5.5v-63zM566 -10q-54 0 -82 25t-28 85v650h68v-658q0 -26 9.5 -35.5t32.5 -9.5v-57z" />
    <glyph glyph-name="caronSlovak" unicode="&#xe413;" 
d="M429 750l-48 -200h-46l16 200h78z" />
    <glyph glyph-name="commaaccent" unicode="&#xe414;" 
d="M332 -50l-56 -200h-50l26 200h80z" />
    <glyph glyph-name="commaaccent" unicode="&#xf6c3;" 
d="M332 -50l-56 -200h-50l26 200h80z" />
    <glyph glyph-name="grave.cap" unicode="&#xe421;" 
d="M260 800l-90 100h90l50 -100h-50z" />
    <glyph glyph-name="acute.cap" unicode="&#xe422;" 
d="M260 800l50 100h90l-90 -100h-50z" />
    <glyph glyph-name="circumflex.cap" unicode="&#xe423;" 
d="M384 800l-99 56l-99 -56h-56l115 100h80l115 -100h-56z" />
    <glyph glyph-name="tilde.cap" unicode="&#xe424;" 
d="M361 849q17 0 26.5 5t14.5 13t6.5 16.5t1.5 16.5h56q4 -53 -25.5 -81.5t-83.5 -28.5q-27 0 -46.5 9.5t-36 21t-31.5 21t-34 9.5q-17 0 -26.5 -5t-14.5 -13t-6.5 -17t-1.5 -16h-56q-4 53 25.5 81.5t83.5 28.5q27 0 46.5 -9.5t36 -21t31.5 -21t34 -9.5z" />
    <glyph glyph-name="macron.cap" unicode="&#xe425;" 
d="M148 880h274v-60h-274v60z" />
    <glyph glyph-name="breve.cap" unicode="&#xe426;" 
d="M285 790q-141 0 -145 110h51q2 -31 26.5 -43t67.5 -12t67.5 12t26.5 43h51q-4 -110 -145 -110z" />
    <glyph glyph-name="invertedbreve.cap" unicode="&#xe427;" 
d="M285 910q141 0 145 -110h-51q-2 31 -26.5 43t-67.5 12t-67.5 -12t-26.5 -43h-51q4 110 145 110z" />
    <glyph glyph-name="dotaccent.cap" unicode="&#xe428;" 
d="M235 850q0 21 14.5 35.5t35.5 14.5t35.5 -14.5t14.5 -35.5t-14.5 -35.5t-35.5 -14.5t-35.5 14.5t-14.5 35.5z" />
    <glyph glyph-name="dieresis.cap" unicode="&#xe429;" 
d="M330 850q0 21 14.5 35.5t35.5 14.5t35.5 -14.5t14.5 -35.5t-14.5 -35.5t-35.5 -14.5t-35.5 14.5t-14.5 35.5zM140 850q0 21 14.5 35.5t35.5 14.5t35.5 -14.5t14.5 -35.5t-14.5 -35.5t-35.5 -14.5t-35.5 14.5t-14.5 35.5z" />
    <glyph glyph-name="ring.cap" unicode="&#xe42a;" 
d="M285 828q44 0 44 22t-44 22t-44 -22t44 -22zM285 921q19 0 36 -3.5t30 -11.5t20.5 -21.5t7.5 -34.5t-7.5 -34.5t-20.5 -21.5t-30 -11.5t-36 -3.5t-36 3.5t-30 11.5t-20.5 21.5t-7.5 34.5t7.5 34.5t20.5 21.5t30 11.5t36 3.5z" />
    <glyph glyph-name="hungarumlaut.cap" unicode="&#xe42b;" 
d="M320 800l50 100h90l-90 -100h-50zM200 800l50 100h90l-90 -100h-50z" />
    <glyph glyph-name="doublegrave.cap" unicode="&#xe42c;" 
d="M200 800l-90 100h90l50 -100h-50zM320 800l-90 100h90l50 -100h-50z" />
    <glyph glyph-name="caron.cap" unicode="&#xe42d;" 
d="M186 900l99 -56l99 56h56l-115 -100h-80l-115 100h56z" />
    <glyph glyph-name="commaaccent.cap" 
d="M344 -50l-68 -200h-50l26 200h92z" />
    </font>
</defs>
</svg>
